<svg xmlns="http://www.w3.org/2000/svg" xmlns:xlink="http://www.w3.org/1999/xlink" width="500" zoomAndPan="magnify" viewBox="0 0 375 374.999991" height="500" preserveAspectRatio="xMidYMid meet" version="1.0"><defs><g/><clipPath id="006a282641"><path d="M 37.5 37.5 L 337.5 37.5 L 337.5 205.078125 L 37.5 205.078125 Z M 37.5 37.5 " clip-rule="nonzero"/></clipPath></defs><g fill="#672901" fill-opacity="1"><g transform="translate(42.963933, 267.499976)"><g><path d="M 38.96875 -42.875 C 38.96875 -40.175781 38.039062 -37.300781 36.1875 -34.25 C 34.332031 -31.195312 31.9375 -28.320312 29 -25.625 C 26.0625 -22.9375 23.023438 -20.695312 19.890625 -18.90625 C 20.640625 -18.0625 21.132812 -17.25 21.375 -16.46875 C 20.894531 -15.75 20.398438 -14.519531 19.890625 -12.78125 C 19.378906 -11.050781 18.972656 -9.289062 18.671875 -7.5 C 18.109375 -4.207031 17.734375 -1.707031 17.546875 0 C 17.160156 0.09375 16.429688 0.140625 15.359375 0.140625 C 14.640625 0.140625 14.023438 0.09375 13.515625 0 C 13.785156 -0.476562 14.039062 -1.382812 14.28125 -2.71875 C 14.519531 -4.050781 14.640625 -5.164062 14.640625 -6.0625 C 14.640625 -7.46875 14.316406 -8.773438 13.671875 -9.984375 C 13.023438 -11.203125 12.132812 -12.109375 11 -12.703125 C 9.53125 -11.953125 8.421875 -10.820312 7.671875 -9.3125 C 6.921875 -7.800781 6.546875 -6.054688 6.546875 -4.078125 C 6.546875 -2.734375 6.816406 -2.0625 7.359375 -2.0625 C 8.078125 -2.0625 8.4375 -3.003906 8.4375 -4.890625 C 8.4375 -5.910156 8.332031 -6.613281 8.125 -7 C 9.53125 -6.675781 10.234375 -5.765625 10.234375 -4.265625 C 10.234375 -3.066406 9.925781 -1.992188 9.3125 -1.046875 C 8.695312 -0.109375 7.851562 0.359375 6.78125 0.359375 C 5.851562 0.359375 5.050781 -0.0234375 4.375 -0.796875 C 3.695312 -1.578125 3.359375 -2.671875 3.359375 -4.078125 C 3.359375 -5.753906 3.71875 -7.367188 4.4375 -8.921875 C 5.15625 -10.484375 6.132812 -11.8125 7.375 -12.90625 C 8.625 -14 10.023438 -14.707031 11.578125 -15.03125 C 12.710938 -14.4375 13.644531 -13.726562 14.375 -12.90625 C 15.113281 -12.082031 15.648438 -11.070312 15.984375 -9.875 C 16.191406 -11.34375 16.429688 -12.566406 16.703125 -13.546875 C 16.972656 -14.535156 17.332031 -15.421875 17.78125 -16.203125 C 17.414062 -17.097656 16.820312 -17.921875 16 -18.671875 C 15.175781 -19.421875 14.316406 -19.796875 13.421875 -19.796875 C 10.515625 -19.617188 8.175781 -18.585938 6.40625 -16.703125 C 4.644531 -14.816406 3.484375 -11.957031 2.921875 -8.125 C 2.828125 -8.539062 2.628906 -9.195312 2.328125 -10.09375 C 2.117188 -10.664062 1.929688 -11.234375 1.765625 -11.796875 C 1.609375 -12.367188 1.546875 -12.851562 1.578125 -13.25 C 2.140625 -15.820312 3.457031 -17.882812 5.53125 -19.4375 C 7.613281 -20.988281 10.570312 -21.859375 14.40625 -22.046875 C 14.882812 -22.046875 15.46875 -21.894531 16.15625 -21.59375 C 16.84375 -21.289062 17.519531 -20.898438 18.1875 -20.421875 C 22.882812 -23.566406 26.800781 -27.113281 29.9375 -31.0625 C 33.082031 -35.007812 34.65625 -38.882812 34.65625 -42.6875 C 34.65625 -45.226562 33.785156 -47.367188 32.046875 -49.109375 C 36.660156 -48.597656 38.96875 -46.519531 38.96875 -42.875 Z M 38.96875 -42.875 "/></g></g></g><g fill="#672901" fill-opacity="1"><g transform="translate(70.03037, 267.499976)"><g><path d="M 8.265625 0.171875 C 7.179688 0.171875 6.335938 -0.144531 5.734375 -0.78125 C 5.140625 -1.425781 4.84375 -2.195312 4.84375 -3.09375 C 4.84375 -4.113281 5.1875 -5.019531 5.875 -5.8125 C 6.5625 -6.601562 7.296875 -7 8.078125 -7 C 8.460938 -7 8.765625 -6.894531 8.984375 -6.6875 C 7.816406 -5.851562 7.234375 -4.640625 7.234375 -3.046875 C 7.234375 -2.148438 7.410156 -1.703125 7.765625 -1.703125 C 8.242188 -1.703125 8.707031 -2.8125 9.15625 -5.03125 C 9.425781 -6.28125 9.648438 -7.578125 9.828125 -8.921875 C 10.003906 -10.273438 10.09375 -11.101562 10.09375 -11.40625 C 10.09375 -12.175781 9.15625 -13.007812 7.28125 -13.90625 C 5.414062 -14.8125 3.601562 -15.425781 1.84375 -15.75 C 2.050781 -17.039062 2.519531 -18.15625 3.25 -19.09375 C 3.988281 -20.039062 4.863281 -20.753906 5.875 -21.234375 C 6.894531 -21.710938 7.914062 -21.953125 8.9375 -21.953125 C 9.5625 -21.953125 10.140625 -21.867188 10.671875 -21.703125 C 11.210938 -21.535156 11.859375 -21.304688 12.609375 -21.015625 C 13.296875 -20.742188 13.847656 -20.539062 14.265625 -20.40625 C 14.691406 -20.269531 15.128906 -20.203125 15.578125 -20.203125 C 16.328125 -20.203125 16.890625 -20.410156 17.265625 -20.828125 C 17.640625 -21.242188 17.914062 -21.914062 18.09375 -22.84375 L 18.3125 -22.765625 C 19.269531 -22.316406 19.75 -21.382812 19.75 -19.96875 C 19.75 -18.863281 19.425781 -17.988281 18.78125 -17.34375 C 18.144531 -16.707031 17.285156 -16.390625 16.203125 -16.390625 C 15.398438 -16.390625 14.691406 -16.535156 14.078125 -16.828125 C 13.460938 -17.128906 12.75 -17.582031 11.9375 -18.1875 C 11.25 -18.6875 10.695312 -19.050781 10.28125 -19.28125 C 9.863281 -19.507812 9.398438 -19.625 8.890625 -19.625 C 8.234375 -19.625 7.640625 -19.394531 7.109375 -18.9375 C 6.585938 -18.488281 6.191406 -17.878906 5.921875 -17.109375 C 8.460938 -16.328125 10.421875 -15.515625 11.796875 -14.671875 C 13.179688 -13.835938 13.875 -12.789062 13.875 -11.53125 C 13.875 -11 13.753906 -9.972656 13.515625 -8.453125 C 13.273438 -6.941406 13.066406 -5.769531 12.890625 -4.9375 C 12.140625 -1.53125 10.597656 0.171875 8.265625 0.171875 Z M 8.265625 0.171875 "/></g></g></g><g fill="#672901" fill-opacity="1"><g transform="translate(89.063991, 267.499976)"><g><path d="M 20.15625 -49.875 C 22.3125 -47.71875 23.390625 -45.1875 23.390625 -42.28125 C 23.390625 -39.144531 22.265625 -36.289062 20.015625 -33.71875 C 17.773438 -31.144531 14.8125 -29.125 11.125 -27.65625 C 7.445312 -26.1875 3.546875 -25.453125 -0.578125 -25.453125 C -2.222656 -25.453125 -3.8125 -25.585938 -5.34375 -25.859375 L -5.609375 -27.34375 C -4.328125 -27.613281 -3.144531 -28.03125 -2.0625 -28.59375 C -0.925781 -29.195312 -0.128906 -29.867188 0.328125 -30.609375 C 0.796875 -31.359375 1.03125 -32.332031 1.03125 -33.53125 C 1.03125 -34.875 0.742188 -35.546875 0.171875 -35.546875 C -0.148438 -35.546875 -0.382812 -35.359375 -0.53125 -34.984375 C -0.6875 -34.617188 -0.765625 -34.132812 -0.765625 -33.53125 C -0.765625 -32.457031 -0.582031 -31.515625 -0.21875 -30.703125 C -0.96875 -30.828125 -1.5625 -31.25 -2 -31.96875 C -2.4375 -32.6875 -2.65625 -33.429688 -2.65625 -34.203125 C -2.65625 -35.078125 -2.367188 -35.859375 -1.796875 -36.546875 C -1.222656 -37.234375 -0.488281 -37.578125 0.40625 -37.578125 C 1.300781 -37.578125 2.023438 -37.191406 2.578125 -36.421875 C 3.128906 -35.660156 3.40625 -34.695312 3.40625 -33.53125 C 3.40625 -32.125 3.015625 -30.894531 2.234375 -29.84375 C 1.460938 -28.800781 0.445312 -27.984375 -0.8125 -27.390625 C 5.050781 -27.679688 10.019531 -29.410156 14.09375 -32.578125 C 18.164062 -35.753906 20.203125 -41.039062 20.203125 -48.4375 Z M 20.15625 -49.875 "/></g></g></g><g fill="#672901" fill-opacity="1"><g transform="translate(92.832703, 267.499976)"><g><path d="M 8.84375 0 C 9.382812 -3.113281 10.253906 -7.316406 11.453125 -12.609375 C 12.015625 -14.941406 12.296875 -16.320312 12.296875 -16.75 C 12.296875 -17.039062 12.191406 -17.425781 11.984375 -17.90625 C 11.773438 -18.382812 11.46875 -18.8125 11.0625 -19.1875 C 10.65625 -19.5625 10.15625 -19.75 9.5625 -19.75 C 8.75 -19.75 7.910156 -19.378906 7.046875 -18.640625 C 6.179688 -17.910156 5.347656 -16.84375 4.546875 -15.4375 C 3.753906 -14.03125 3.109375 -12.359375 2.609375 -10.421875 L 2.375 -10.546875 C 2.375 -10.722656 2.335938 -11.015625 2.265625 -11.421875 C 2.191406 -11.828125 2.125 -12.148438 2.0625 -12.390625 C 2.03125 -12.535156 1.953125 -12.890625 1.828125 -13.453125 C 1.710938 -14.023438 1.671875 -14.445312 1.703125 -14.71875 C 2.148438 -16.25 2.867188 -17.566406 3.859375 -18.671875 C 4.847656 -19.773438 5.941406 -20.601562 7.140625 -21.15625 C 8.335938 -21.71875 9.472656 -22 10.546875 -22 C 11.710938 -22 12.726562 -21.695312 13.59375 -21.09375 C 14.46875 -20.5 15.144531 -19.8125 15.625 -19.03125 C 16.101562 -18.25 16.34375 -17.632812 16.34375 -17.1875 C 16.34375 -16.863281 16.070312 -15.472656 15.53125 -13.015625 C 14.539062 -8.796875 13.660156 -4.457031 12.890625 0 Z M 8.84375 0 "/></g></g></g><g fill="#672901" fill-opacity="1"><g transform="translate(114.153825, 267.499976)"><g><path d="M 9.875 0.09375 C 9.039062 0.09375 8.195312 0.00390625 7.34375 -0.171875 C 6.488281 -0.359375 5.835938 -0.554688 5.390625 -0.765625 C 5.535156 -2.109375 5.609375 -3.304688 5.609375 -4.359375 C 5.523438 -12.492188 3.488281 -17.695312 -0.5 -19.96875 C 0.25 -20.957031 1.238281 -21.453125 2.46875 -21.453125 C 4.476562 -21.453125 5.921875 -20.082031 6.796875 -17.34375 C 7.679688 -14.613281 8.125 -10.941406 8.125 -6.328125 C 8.125 -5.460938 8.09375 -4.128906 8.03125 -2.328125 C 8.507812 -2.117188 9.15625 -2.015625 9.96875 -2.015625 C 10.957031 -2.015625 11.644531 -2.148438 12.03125 -2.421875 C 12.175781 -3.890625 12.414062 -5.28125 12.75 -6.59375 C 13.082031 -7.914062 13.5625 -9.59375 14.1875 -11.625 C 14.75 -13.414062 15.15625 -14.835938 15.40625 -15.890625 C 15.664062 -16.941406 15.796875 -17.929688 15.796875 -18.859375 C 15.796875 -19.273438 15.757812 -19.570312 15.6875 -19.75 C 15.613281 -19.925781 15.488281 -20.015625 15.3125 -20.015625 C 14.914062 -20.015625 14.59375 -19.710938 14.34375 -19.109375 C 14.09375 -18.515625 13.96875 -17.847656 13.96875 -17.109375 C 13.96875 -16.421875 13.988281 -15.847656 14.03125 -15.390625 C 14.070312 -14.941406 14.179688 -14.492188 14.359375 -14.046875 C 13.492188 -14.253906 12.851562 -14.664062 12.4375 -15.28125 C 12.019531 -15.894531 11.8125 -16.679688 11.8125 -17.640625 C 11.8125 -19.015625 12.222656 -20.132812 13.046875 -21 C 13.867188 -21.875 14.878906 -22.3125 16.078125 -22.3125 C 17.023438 -22.3125 17.773438 -22.003906 18.328125 -21.390625 C 18.890625 -20.773438 19.171875 -19.882812 19.171875 -18.71875 C 19.171875 -17.789062 19.003906 -16.726562 18.671875 -15.53125 C 18.347656 -14.332031 17.851562 -12.75 17.1875 -10.78125 C 16.5 -8.738281 15.9375 -6.9375 15.5 -5.375 C 15.070312 -3.820312 14.785156 -2.316406 14.640625 -0.859375 C 14.210938 -0.554688 13.519531 -0.320312 12.5625 -0.15625 C 11.613281 0.0078125 10.71875 0.09375 9.875 0.09375 Z M 9.875 0.09375 "/></g></g></g><g fill="#672901" fill-opacity="1"><g transform="translate(137.62944, 267.499976)"><g><path d="M 12.890625 -22 C 14.171875 -22 15.492188 -21.691406 16.859375 -21.078125 C 18.222656 -20.460938 19.320312 -19.710938 20.15625 -18.828125 C 20.988281 -17.941406 21.347656 -17.128906 21.234375 -16.390625 L 20.015625 -10.140625 C 19.054688 -5.359375 18.398438 -1.976562 18.046875 0 L 14 0 C 14.601562 -3.289062 15.234375 -6.523438 15.890625 -9.703125 L 17.109375 -16.109375 C 17.160156 -16.441406 17.019531 -16.890625 16.6875 -17.453125 C 16.363281 -18.023438 15.8125 -18.535156 15.03125 -18.984375 C 14.257812 -19.429688 13.273438 -19.65625 12.078125 -19.65625 C 10.222656 -19.65625 8.769531 -19.054688 7.71875 -17.859375 C 6.675781 -16.671875 6.15625 -14.863281 6.15625 -12.4375 L 6.1875 -9.734375 L 6.28125 -6.15625 C 6.28125 -5.375 6.265625 -4.789062 6.234375 -4.40625 C 6.773438 -5.269531 7.703125 -6.359375 9.015625 -7.671875 C 10.035156 -8.691406 10.769531 -9.535156 11.21875 -10.203125 C 11.664062 -10.878906 11.890625 -11.65625 11.890625 -12.53125 C 11.890625 -13.25 11.695312 -13.609375 11.3125 -13.609375 C 10.976562 -13.609375 10.671875 -13.359375 10.390625 -12.859375 C 10.109375 -12.367188 9.890625 -11.734375 9.734375 -10.953125 C 9.617188 -10.117188 9.578125 -9.429688 9.609375 -8.890625 C 9.191406 -9.003906 8.851562 -9.269531 8.59375 -9.6875 C 8.34375 -10.113281 8.21875 -10.65625 8.21875 -11.3125 C 8.21875 -12.445312 8.5625 -13.441406 9.25 -14.296875 C 9.9375 -15.148438 10.800781 -15.578125 11.84375 -15.578125 C 12.5625 -15.578125 13.148438 -15.34375 13.609375 -14.875 C 14.078125 -14.414062 14.3125 -13.707031 14.3125 -12.75 C 14.3125 -11.644531 14.019531 -10.640625 13.4375 -9.734375 C 12.851562 -8.835938 11.953125 -7.734375 10.734375 -6.421875 C 9.535156 -5.128906 8.617188 -4.023438 7.984375 -3.109375 C 7.359375 -2.203125 6.941406 -1.164062 6.734375 0 C 6.460938 0.09375 5.816406 0.140625 4.796875 0.140625 C 3.453125 0.140625 2.570312 0.09375 2.15625 0 C 2.425781 -0.988281 2.632812 -1.847656 2.78125 -2.578125 C 2.925781 -3.316406 3 -4.070312 3 -4.84375 C 3 -5.957031 2.835938 -7.53125 2.515625 -9.5625 C 2.484375 -9.914062 2.40625 -10.539062 2.28125 -11.4375 C 2.164062 -12.34375 2.109375 -13.050781 2.109375 -13.5625 C 2.109375 -15.445312 2.734375 -17.023438 3.984375 -18.296875 C 5.242188 -19.566406 6.71875 -20.5 8.40625 -21.09375 C 10.101562 -21.695312 11.597656 -22 12.890625 -22 Z M 12.890625 -22 "/></g></g></g><g fill="#672901" fill-opacity="1"><g transform="translate(160.613431, 267.499976)"><g><path d="M 20.15625 -49.875 C 22.3125 -47.71875 23.390625 -45.1875 23.390625 -42.28125 C 23.390625 -39.144531 22.265625 -36.289062 20.015625 -33.71875 C 17.773438 -31.144531 14.8125 -29.125 11.125 -27.65625 C 7.445312 -26.1875 3.546875 -25.453125 -0.578125 -25.453125 C -2.222656 -25.453125 -3.8125 -25.585938 -5.34375 -25.859375 L -5.609375 -27.34375 C -4.328125 -27.613281 -3.144531 -28.03125 -2.0625 -28.59375 C -0.925781 -29.195312 -0.128906 -29.867188 0.328125 -30.609375 C 0.796875 -31.359375 1.03125 -32.332031 1.03125 -33.53125 C 1.03125 -34.875 0.742188 -35.546875 0.171875 -35.546875 C -0.148438 -35.546875 -0.382812 -35.359375 -0.53125 -34.984375 C -0.6875 -34.617188 -0.765625 -34.132812 -0.765625 -33.53125 C -0.765625 -32.457031 -0.582031 -31.515625 -0.21875 -30.703125 C -0.96875 -30.828125 -1.5625 -31.25 -2 -31.96875 C -2.4375 -32.6875 -2.65625 -33.429688 -2.65625 -34.203125 C -2.65625 -35.078125 -2.367188 -35.859375 -1.796875 -36.546875 C -1.222656 -37.234375 -0.488281 -37.578125 0.40625 -37.578125 C 1.300781 -37.578125 2.023438 -37.191406 2.578125 -36.421875 C 3.128906 -35.660156 3.40625 -34.695312 3.40625 -33.53125 C 3.40625 -32.125 3.015625 -30.894531 2.234375 -29.84375 C 1.460938 -28.800781 0.445312 -27.984375 -0.8125 -27.390625 C 5.050781 -27.679688 10.019531 -29.410156 14.09375 -32.578125 C 18.164062 -35.753906 20.203125 -41.039062 20.203125 -48.4375 Z M 20.15625 -49.875 "/></g></g></g><g fill="#672901" fill-opacity="1"><g transform="translate(164.202142, 267.499976)"><g><path d="M 9.96875 0.171875 C 8.863281 0.171875 8.015625 -0.140625 7.421875 -0.765625 C 6.835938 -1.390625 6.546875 -2.253906 6.546875 -3.359375 C 6.546875 -4.617188 6.875 -5.691406 7.53125 -6.578125 C 8.195312 -7.460938 9.007812 -7.90625 9.96875 -7.90625 C 10.269531 -7.90625 10.566406 -7.859375 10.859375 -7.765625 C 10.234375 -7.222656 9.75 -6.554688 9.40625 -5.765625 C 9.0625 -4.972656 8.890625 -4.171875 8.890625 -3.359375 C 8.890625 -2.941406 8.945312 -2.628906 9.0625 -2.421875 C 9.1875 -2.210938 9.382812 -2.109375 9.65625 -2.109375 C 10.101562 -2.109375 10.445312 -2.367188 10.6875 -2.890625 C 10.925781 -3.421875 11.148438 -4.207031 11.359375 -5.25 C 11.921875 -7.945312 12.378906 -10.070312 12.734375 -11.625 C 13.097656 -13.1875 13.597656 -14.9375 14.234375 -16.875 C 14.285156 -17.207031 14.117188 -17.570312 13.734375 -17.96875 C 13.347656 -18.375 12.890625 -18.734375 12.359375 -19.046875 C 11.835938 -19.367188 11.472656 -19.53125 11.265625 -19.53125 C 9.523438 -19.53125 7.988281 -18.847656 6.65625 -17.484375 C 5.332031 -16.117188 4.445312 -14.195312 4 -11.71875 C 3.757812 -10.34375 3.59375 -8.738281 3.5 -6.90625 L 3.28125 -7.140625 C 3.1875 -7.378906 3 -7.6875 2.71875 -8.0625 C 2.4375 -8.4375 2.265625 -8.664062 2.203125 -8.75 C 1.453125 -9.59375 1.046875 -10.238281 0.984375 -10.6875 C 1.140625 -12.175781 1.242188 -13.085938 1.296875 -13.421875 C 1.660156 -15.210938 2.394531 -16.75 3.5 -18.03125 C 4.601562 -19.320312 5.878906 -20.304688 7.328125 -20.984375 C 8.785156 -21.660156 10.203125 -22 11.578125 -22 C 13.015625 -22 14.226562 -21.695312 15.21875 -21.09375 C 16.207031 -20.5 16.941406 -19.8125 17.421875 -19.03125 C 17.898438 -18.25 18.140625 -17.632812 18.140625 -17.1875 C 17.179688 -14.4375 16.296875 -11.117188 15.484375 -7.234375 L 15.078125 -5.4375 C 14.722656 -3.90625 14.191406 -2.585938 13.484375 -1.484375 C 12.785156 -0.378906 11.613281 0.171875 9.96875 0.171875 Z M 9.96875 0.171875 "/></g></g></g><g fill="#672901" fill-opacity="1"><g transform="translate(186.780058, 267.499976)"><g><path d="M 22.046875 -21.765625 C 21.835938 -20.628906 21.359375 -18.503906 20.609375 -15.390625 C 20.035156 -13.117188 19.609375 -11.253906 19.328125 -9.796875 C 19.046875 -8.347656 18.90625 -7.039062 18.90625 -5.875 C 18.90625 -5.25 18.945312 -4.769531 19.03125 -4.4375 C 17.65625 -3.03125 16.097656 -1.910156 14.359375 -1.078125 C 12.628906 -0.242188 10.957031 0.171875 9.34375 0.171875 C 8.082031 0.171875 6.867188 -0.0703125 5.703125 -0.5625 C 4.535156 -1.050781 3.582031 -1.726562 2.84375 -2.59375 C 2.113281 -3.46875 1.75 -4.429688 1.75 -5.484375 C 1.75 -6.523438 2.109375 -7.546875 2.828125 -8.546875 C 3.546875 -9.554688 4.488281 -10.285156 5.65625 -10.734375 C 4.875 -11.179688 4.273438 -11.816406 3.859375 -12.640625 C 3.441406 -13.460938 3.234375 -14.410156 3.234375 -15.484375 C 3.234375 -16.742188 3.515625 -17.875 4.078125 -18.875 C 4.648438 -19.875 5.398438 -20.648438 6.328125 -21.203125 C 7.253906 -21.765625 8.210938 -22.046875 9.203125 -22.046875 C 10.015625 -22.046875 10.65625 -21.847656 11.125 -21.453125 C 11.601562 -21.066406 11.84375 -20.484375 11.84375 -19.703125 C 11.84375 -18.984375 11.640625 -18.265625 11.234375 -17.546875 C 10.835938 -16.828125 10.285156 -16.242188 9.578125 -15.796875 C 8.878906 -15.347656 8.125 -15.125 7.3125 -15.125 C 7.882812 -15.8125 8.382812 -16.570312 8.8125 -17.40625 C 9.25 -18.25 9.46875 -18.957031 9.46875 -19.53125 C 9.46875 -20.007812 9.289062 -20.25 8.9375 -20.25 C 8.519531 -20.25 8.125 -19.929688 7.75 -19.296875 C 7.375 -18.671875 7.078125 -17.929688 6.859375 -17.078125 C 6.648438 -16.222656 6.546875 -15.484375 6.546875 -14.859375 C 6.546875 -13.003906 7.640625 -12.078125 9.828125 -12.078125 C 11.148438 -12.078125 12.210938 -12.375 13.015625 -12.96875 C 13.109375 -12.675781 13.15625 -12.394531 13.15625 -12.125 C 13.15625 -11.375 12.890625 -10.75 12.359375 -10.25 C 11.835938 -9.757812 11.175781 -9.515625 10.375 -9.515625 C 10.101562 -9.515625 9.75 -9.550781 9.3125 -9.625 C 8.875 -9.695312 8.582031 -9.734375 8.4375 -9.734375 C 7.632812 -9.734375 7.003906 -9.273438 6.546875 -8.359375 C 6.097656 -7.453125 5.875 -6.582031 5.875 -5.75 C 5.875 -4.695312 6.28125 -3.828125 7.09375 -3.140625 C 7.90625 -2.453125 8.757812 -2.109375 9.65625 -2.109375 C 10.457031 -2.109375 11.410156 -2.375 12.515625 -2.90625 C 13.628906 -3.445312 14.46875 -4.066406 15.03125 -4.765625 C 14.976562 -5.296875 14.953125 -5.757812 14.953125 -6.15625 C 14.953125 -7.257812 15.078125 -8.535156 15.328125 -9.984375 C 15.585938 -11.441406 16 -13.441406 16.5625 -15.984375 C 16.945312 -17.710938 17.351562 -19.640625 17.78125 -21.765625 Z M 22.046875 -21.765625 "/></g></g></g><g fill="#672901" fill-opacity="1"><g transform="translate(212.859019, 267.499976)"><g><path d="M 40.3125 -41.796875 C 40.3125 -39.160156 39.367188 -36.316406 37.484375 -33.265625 C 35.597656 -30.210938 33.164062 -27.320312 30.1875 -24.59375 C 27.207031 -21.875 24.160156 -19.644531 21.046875 -17.90625 C 21.410156 -17.21875 21.546875 -16.664062 21.453125 -16.25 C 21.179688 -14.9375 20.734375 -13.066406 20.109375 -10.640625 C 19.453125 -8.035156 18.96875 -5.953125 18.65625 -4.390625 C 18.34375 -2.835938 18.1875 -1.375 18.1875 0 L 14.1875 0 C 14.1875 -1.3125 14.382812 -2.859375 14.78125 -4.640625 C 15.1875 -6.421875 15.738281 -8.570312 16.4375 -11.09375 C 16.726562 -12.164062 16.992188 -13.15625 17.234375 -14.0625 C 17.472656 -14.976562 17.59375 -15.617188 17.59375 -15.984375 C 17.59375 -16.460938 17.460938 -16.992188 17.203125 -17.578125 C 16.953125 -18.160156 16.503906 -18.679688 15.859375 -19.140625 C 15.222656 -19.609375 14.351562 -19.84375 13.25 -19.84375 C 12.070312 -19.84375 11 -19.566406 10.03125 -19.015625 C 9.0625 -18.460938 8.285156 -17.71875 7.703125 -16.78125 C 7.117188 -15.851562 6.8125 -14.851562 6.78125 -13.78125 C 6.65625 -11.269531 6.566406 -9.535156 6.515625 -8.578125 C 7.109375 -9.953125 7.796875 -11.222656 8.578125 -12.390625 C 9.828125 -14.148438 11.273438 -15.03125 12.921875 -15.03125 C 14.359375 -15.03125 15.078125 -14.375 15.078125 -13.0625 C 15.078125 -12.25 14.832031 -11.488281 14.34375 -10.78125 C 13.851562 -10.082031 13.234375 -9.523438 12.484375 -9.109375 C 11.734375 -8.691406 10.984375 -8.484375 10.234375 -8.484375 C 9.785156 -8.484375 9.425781 -8.570312 9.15625 -8.75 C 9.96875 -9.050781 10.769531 -9.597656 11.5625 -10.390625 C 12.351562 -11.179688 12.75 -11.863281 12.75 -12.4375 C 12.75 -12.757812 12.554688 -12.921875 12.171875 -12.921875 C 11.503906 -12.921875 10.769531 -12.351562 9.96875 -11.21875 C 9.1875 -10.113281 8.46875 -8.796875 7.8125 -7.265625 C 7.15625 -5.742188 6.613281 -4.054688 6.1875 -2.203125 C 6.039062 -1.546875 5.921875 -0.8125 5.828125 0 C 5.378906 0.09375 4.753906 0.140625 3.953125 0.140625 C 3.171875 0.140625 2.554688 0.09375 2.109375 0 C 2.378906 -0.832031 2.601562 -1.816406 2.78125 -2.953125 C 2.957031 -4.097656 3.046875 -5.164062 3.046875 -6.15625 C 3.046875 -6.925781 2.957031 -7.941406 2.78125 -9.203125 C 2.75 -9.410156 2.703125 -9.796875 2.640625 -10.359375 C 2.585938 -10.929688 2.5625 -11.457031 2.5625 -11.9375 C 2.5625 -14.1875 3.171875 -16.070312 4.390625 -17.59375 C 5.617188 -19.125 7.101562 -20.25 8.84375 -20.96875 C 10.582031 -21.6875 12.226562 -22.046875 13.78125 -22.046875 C 14.976562 -22.046875 16.078125 -21.816406 17.078125 -21.359375 C 18.078125 -20.910156 18.953125 -20.34375 19.703125 -19.65625 C 24.347656 -22.738281 28.21875 -26.25 31.3125 -30.1875 C 34.40625 -34.125 35.953125 -37.992188 35.953125 -41.796875 C 35.953125 -44.367188 35.101562 -46.507812 33.40625 -48.21875 C 35.851562 -47.945312 37.613281 -47.269531 38.6875 -46.1875 C 39.769531 -45.113281 40.3125 -43.648438 40.3125 -41.796875 Z M 40.3125 -41.796875 "/></g></g></g><g fill="#672901" fill-opacity="1"><g transform="translate(239.297062, 267.499976)"><g><path d="M 8.265625 0.171875 C 7.179688 0.171875 6.335938 -0.144531 5.734375 -0.78125 C 5.140625 -1.425781 4.84375 -2.195312 4.84375 -3.09375 C 4.84375 -4.113281 5.1875 -5.019531 5.875 -5.8125 C 6.5625 -6.601562 7.296875 -7 8.078125 -7 C 8.460938 -7 8.765625 -6.894531 8.984375 -6.6875 C 7.816406 -5.851562 7.234375 -4.640625 7.234375 -3.046875 C 7.234375 -2.148438 7.410156 -1.703125 7.765625 -1.703125 C 8.242188 -1.703125 8.707031 -2.8125 9.15625 -5.03125 C 9.425781 -6.28125 9.648438 -7.578125 9.828125 -8.921875 C 10.003906 -10.273438 10.09375 -11.101562 10.09375 -11.40625 C 10.09375 -12.175781 9.15625 -13.007812 7.28125 -13.90625 C 5.414062 -14.8125 3.601562 -15.425781 1.84375 -15.75 C 2.050781 -17.039062 2.519531 -18.15625 3.25 -19.09375 C 3.988281 -20.039062 4.863281 -20.753906 5.875 -21.234375 C 6.894531 -21.710938 7.914062 -21.953125 8.9375 -21.953125 C 9.5625 -21.953125 10.140625 -21.867188 10.671875 -21.703125 C 11.210938 -21.535156 11.859375 -21.304688 12.609375 -21.015625 C 13.296875 -20.742188 13.847656 -20.539062 14.265625 -20.40625 C 14.691406 -20.269531 15.128906 -20.203125 15.578125 -20.203125 C 16.328125 -20.203125 16.890625 -20.410156 17.265625 -20.828125 C 17.640625 -21.242188 17.914062 -21.914062 18.09375 -22.84375 L 18.3125 -22.765625 C 19.269531 -22.316406 19.75 -21.382812 19.75 -19.96875 C 19.75 -18.863281 19.425781 -17.988281 18.78125 -17.34375 C 18.144531 -16.707031 17.285156 -16.390625 16.203125 -16.390625 C 15.398438 -16.390625 14.691406 -16.535156 14.078125 -16.828125 C 13.460938 -17.128906 12.75 -17.582031 11.9375 -18.1875 C 11.25 -18.6875 10.695312 -19.050781 10.28125 -19.28125 C 9.863281 -19.507812 9.398438 -19.625 8.890625 -19.625 C 8.234375 -19.625 7.640625 -19.394531 7.109375 -18.9375 C 6.585938 -18.488281 6.191406 -17.878906 5.921875 -17.109375 C 8.460938 -16.328125 10.421875 -15.515625 11.796875 -14.671875 C 13.179688 -13.835938 13.875 -12.789062 13.875 -11.53125 C 13.875 -11 13.753906 -9.972656 13.515625 -8.453125 C 13.273438 -6.941406 13.066406 -5.769531 12.890625 -4.9375 C 12.140625 -1.53125 10.597656 0.171875 8.265625 0.171875 Z M 8.265625 0.171875 "/></g></g></g><g fill="#672901" fill-opacity="1"><g transform="translate(258.330659, 267.499976)"><g><path d="M 3.453125 -24.828125 C 1.929688 -24.828125 0.328125 -25.039062 -1.359375 -25.46875 C -3.054688 -25.90625 -4.492188 -26.566406 -5.671875 -27.453125 C -6.859375 -28.335938 -7.453125 -29.421875 -7.453125 -30.703125 C -7.453125 -31.753906 -7.09375 -32.613281 -6.375 -33.28125 C -5.65625 -33.957031 -4.648438 -34.296875 -3.359375 -34.296875 C -2.429688 -34.296875 -1.5625 -33.972656 -0.75 -33.328125 C 0.0507812 -32.679688 0.453125 -31.820312 0.453125 -30.75 C 0.453125 -30.09375 0.242188 -29.34375 -0.171875 -28.5 C -0.628906 -29.613281 -1.15625 -30.515625 -1.75 -31.203125 C -2.351562 -31.890625 -2.96875 -32.234375 -3.59375 -32.234375 C -3.976562 -32.234375 -4.28125 -32.132812 -4.5 -31.9375 C -4.726562 -31.738281 -4.84375 -31.445312 -4.84375 -31.0625 C -4.84375 -30.375 -4.410156 -29.722656 -3.546875 -29.109375 C -2.679688 -28.492188 -1.597656 -28 -0.296875 -27.625 C 1.003906 -27.25 2.253906 -27.0625 3.453125 -27.0625 C 7.703125 -27.0625 11.726562 -27.96875 15.53125 -29.78125 C 19.332031 -31.59375 22.398438 -34.066406 24.734375 -37.203125 C 27.066406 -40.347656 28.234375 -43.835938 28.234375 -47.671875 C 28.234375 -49.679688 27.9375 -51.285156 27.34375 -52.484375 C 28.800781 -51.878906 29.9375 -51.015625 30.75 -49.890625 C 31.5625 -48.773438 31.96875 -47.5 31.96875 -46.0625 C 31.96875 -41.988281 30.566406 -38.328125 27.765625 -35.078125 C 24.960938 -31.835938 21.351562 -29.316406 16.9375 -27.515625 C 12.53125 -25.722656 8.035156 -24.828125 3.453125 -24.828125 Z M 3.453125 -24.828125 "/></g></g></g><g fill="#672901" fill-opacity="1"><g transform="translate(262.099389, 267.499976)"><g><path d="M 22.453125 -18.140625 C 22.453125 -17.597656 21.941406 -14.722656 20.921875 -9.515625 C 19.960938 -4.484375 19.363281 -1.3125 19.125 0 L 14.90625 0 L 15.71875 -4.078125 C 17.476562 -12.765625 18.359375 -17.195312 18.359375 -17.375 C 18.359375 -17.789062 18.257812 -18.140625 18.0625 -18.421875 C 17.875 -18.710938 17.582031 -18.859375 17.1875 -18.859375 C 16.207031 -18.859375 14.953125 -17.921875 13.421875 -16.046875 C 11.898438 -14.179688 10.476562 -11.785156 9.15625 -8.859375 C 7.84375 -5.941406 6.914062 -2.988281 6.375 0 C 5.925781 0.09375 5.296875 0.140625 4.484375 0.140625 C 3.585938 0.140625 2.914062 0.09375 2.46875 0 C 2.738281 -0.6875 2.960938 -1.414062 3.140625 -2.1875 C 3.316406 -2.96875 3.523438 -4.019531 3.765625 -5.34375 L 6.640625 -19.125 C 6.640625 -19.664062 6.488281 -19.9375 6.1875 -19.9375 C 5.71875 -19.9375 5.335938 -19.46875 5.046875 -18.53125 C 4.765625 -17.601562 4.625 -16.632812 4.625 -15.625 C 4.625 -14.96875 4.695312 -14.304688 4.84375 -13.640625 C 3.46875 -14.003906 2.78125 -15.007812 2.78125 -16.65625 C 2.78125 -17.644531 3.003906 -18.550781 3.453125 -19.375 C 3.898438 -20.195312 4.484375 -20.847656 5.203125 -21.328125 C 5.921875 -21.804688 6.671875 -22.046875 7.453125 -22.046875 C 8.253906 -22.046875 8.910156 -21.789062 9.421875 -21.28125 C 9.929688 -20.769531 10.1875 -20.066406 10.1875 -19.171875 C 10.1875 -18.804688 9.976562 -17.769531 9.5625 -16.0625 C 9.144531 -14.363281 8.875 -13.257812 8.75 -12.75 C 8.664062 -12.476562 8.5625 -12.070312 8.4375 -11.53125 C 9.8125 -14.53125 11.359375 -17.046875 13.078125 -19.078125 C 14.804688 -21.109375 16.566406 -22.125 18.359375 -22.125 C 19.429688 -22.125 20.378906 -21.757812 21.203125 -21.03125 C 22.035156 -20.300781 22.453125 -19.335938 22.453125 -18.140625 Z M 22.453125 -18.140625 "/></g></g></g><g fill="#672901" fill-opacity="1"><g transform="translate(289.614679, 267.499976)"><g><path d="M 8.703125 0.171875 C 7.804688 0.171875 6.960938 0.015625 6.171875 -0.296875 C 5.378906 -0.609375 4.457031 -1.046875 3.40625 -1.609375 C 2.207031 -2.242188 1.367188 -2.601562 0.890625 -2.6875 C 1.222656 -3.289062 1.546875 -4.257812 1.859375 -5.59375 C 2.171875 -6.925781 2.492188 -8.546875 2.828125 -10.453125 C 2.941406 -11.085938 3.242188 -11.59375 3.734375 -11.96875 C 4.234375 -12.34375 4.800781 -12.53125 5.4375 -12.53125 C 5.789062 -12.53125 6.101562 -12.472656 6.375 -12.359375 C 6.644531 -12.253906 6.890625 -12.132812 7.109375 -12 C 7.335938 -11.875 7.507812 -11.78125 7.625 -11.71875 C 7.414062 -11.476562 7.238281 -11.207031 7.09375 -10.90625 C 6.945312 -10.601562 6.8125 -10.15625 6.6875 -9.5625 C 6.507812 -8.664062 6.390625 -8.007812 6.328125 -7.59375 C 6.085938 -6.414062 5.90625 -5.59375 5.78125 -5.125 C 5.664062 -4.664062 5.503906 -4.332031 5.296875 -4.125 C 5.628906 -3.675781 6.109375 -3.257812 6.734375 -2.875 C 7.359375 -2.488281 8.03125 -2.296875 8.75 -2.296875 C 9.53125 -2.296875 10.304688 -2.519531 11.078125 -2.96875 C 11.859375 -3.414062 12.429688 -3.96875 12.796875 -4.625 C 12.910156 -5.25 13.101562 -6.160156 13.375 -7.359375 C 13.4375 -7.597656 13.554688 -8.144531 13.734375 -9 C 13.910156 -9.851562 14 -10.445312 14 -10.78125 C 14 -11.039062 13.898438 -11.289062 13.703125 -11.53125 C 13.515625 -11.769531 13.148438 -12.039062 12.609375 -12.34375 C 11.390625 -13.03125 9.863281 -13.617188 8.03125 -14.109375 C 6.207031 -14.609375 4.441406 -15.007812 2.734375 -15.3125 C 2.941406 -17.40625 3.679688 -19.035156 4.953125 -20.203125 C 6.234375 -21.367188 7.753906 -21.953125 9.515625 -21.953125 C 10.171875 -21.953125 10.773438 -21.882812 11.328125 -21.75 C 11.890625 -21.613281 12.601562 -21.394531 13.46875 -21.09375 C 13.945312 -20.945312 14.429688 -20.804688 14.921875 -20.671875 C 15.421875 -20.535156 15.847656 -20.46875 16.203125 -20.46875 C 17.640625 -20.46875 18.539062 -21.363281 18.90625 -23.15625 L 19.078125 -23.078125 C 20.578125 -22.628906 21.328125 -21.640625 21.328125 -20.109375 C 21.328125 -18.972656 20.9375 -18.050781 20.15625 -17.34375 C 19.375 -16.644531 18.382812 -16.296875 17.1875 -16.296875 C 16.382812 -16.296875 15.644531 -16.441406 14.96875 -16.734375 C 14.300781 -17.035156 13.546875 -17.457031 12.703125 -18 C 11.984375 -18.476562 11.367188 -18.828125 10.859375 -19.046875 C 10.347656 -19.273438 9.8125 -19.390625 9.25 -19.390625 C 8.5625 -19.390625 7.9375 -19.1875 7.375 -18.78125 C 6.820312 -18.382812 6.414062 -17.796875 6.15625 -17.015625 C 7.5625 -16.773438 9.257812 -16.332031 11.25 -15.6875 C 13.238281 -15.039062 14.875 -14.375 16.15625 -13.6875 C 16.9375 -13.269531 17.460938 -12.894531 17.734375 -12.5625 C 18.003906 -12.238281 18.140625 -11.820312 18.140625 -11.3125 C 18.140625 -10.625 17.992188 -9.695312 17.703125 -8.53125 C 17.421875 -7.363281 17.265625 -6.691406 17.234375 -6.515625 L 16.921875 -5.15625 C 16.890625 -5.007812 16.875 -4.640625 16.875 -4.046875 C 15.882812 -2.847656 14.625 -1.84375 13.09375 -1.03125 C 11.570312 -0.226562 10.109375 0.171875 8.703125 0.171875 Z M 8.703125 0.171875 "/></g></g></g><g fill="#672901" fill-opacity="1"><g transform="translate(314.302205, 267.499976)"><g><path d="M 8.84375 0 C 9.382812 -3.113281 10.253906 -7.316406 11.453125 -12.609375 C 12.015625 -14.941406 12.296875 -16.320312 12.296875 -16.75 C 12.296875 -17.039062 12.191406 -17.425781 11.984375 -17.90625 C 11.773438 -18.382812 11.46875 -18.8125 11.0625 -19.1875 C 10.65625 -19.5625 10.15625 -19.75 9.5625 -19.75 C 8.75 -19.75 7.910156 -19.378906 7.046875 -18.640625 C 6.179688 -17.910156 5.347656 -16.84375 4.546875 -15.4375 C 3.753906 -14.03125 3.109375 -12.359375 2.609375 -10.421875 L 2.375 -10.546875 C 2.375 -10.722656 2.335938 -11.015625 2.265625 -11.421875 C 2.191406 -11.828125 2.125 -12.148438 2.0625 -12.390625 C 2.03125 -12.535156 1.953125 -12.890625 1.828125 -13.453125 C 1.710938 -14.023438 1.671875 -14.445312 1.703125 -14.71875 C 2.148438 -16.25 2.867188 -17.566406 3.859375 -18.671875 C 4.847656 -19.773438 5.941406 -20.601562 7.140625 -21.15625 C 8.335938 -21.71875 9.472656 -22 10.546875 -22 C 11.710938 -22 12.726562 -21.695312 13.59375 -21.09375 C 14.46875 -20.5 15.144531 -19.8125 15.625 -19.03125 C 16.101562 -18.25 16.34375 -17.632812 16.34375 -17.1875 C 16.34375 -16.863281 16.070312 -15.472656 15.53125 -13.015625 C 14.539062 -8.796875 13.660156 -4.457031 12.890625 0 Z M 8.84375 0 "/></g></g></g><g fill="#672901" fill-opacity="1"><g transform="translate(84.077211, 321.015596)"><g><path d="M 38.96875 -42.875 C 38.96875 -40.175781 38.039062 -37.300781 36.1875 -34.25 C 34.332031 -31.195312 31.9375 -28.320312 29 -25.625 C 26.0625 -22.9375 23.023438 -20.695312 19.890625 -18.90625 C 20.640625 -18.0625 21.132812 -17.25 21.375 -16.46875 C 20.894531 -15.75 20.398438 -14.519531 19.890625 -12.78125 C 19.378906 -11.050781 18.972656 -9.289062 18.671875 -7.5 C 18.109375 -4.207031 17.734375 -1.707031 17.546875 0 C 17.160156 0.09375 16.429688 0.140625 15.359375 0.140625 C 14.640625 0.140625 14.023438 0.09375 13.515625 0 C 13.785156 -0.476562 14.039062 -1.382812 14.28125 -2.71875 C 14.519531 -4.050781 14.640625 -5.164062 14.640625 -6.0625 C 14.640625 -7.46875 14.316406 -8.773438 13.671875 -9.984375 C 13.023438 -11.203125 12.132812 -12.109375 11 -12.703125 C 9.53125 -11.953125 8.421875 -10.820312 7.671875 -9.3125 C 6.921875 -7.800781 6.546875 -6.054688 6.546875 -4.078125 C 6.546875 -2.734375 6.816406 -2.0625 7.359375 -2.0625 C 8.078125 -2.0625 8.4375 -3.003906 8.4375 -4.890625 C 8.4375 -5.910156 8.332031 -6.613281 8.125 -7 C 9.53125 -6.675781 10.234375 -5.765625 10.234375 -4.265625 C 10.234375 -3.066406 9.925781 -1.992188 9.3125 -1.046875 C 8.695312 -0.109375 7.851562 0.359375 6.78125 0.359375 C 5.851562 0.359375 5.050781 -0.0234375 4.375 -0.796875 C 3.695312 -1.578125 3.359375 -2.671875 3.359375 -4.078125 C 3.359375 -5.753906 3.71875 -7.367188 4.4375 -8.921875 C 5.15625 -10.484375 6.132812 -11.8125 7.375 -12.90625 C 8.625 -14 10.023438 -14.707031 11.578125 -15.03125 C 12.710938 -14.4375 13.644531 -13.726562 14.375 -12.90625 C 15.113281 -12.082031 15.648438 -11.070312 15.984375 -9.875 C 16.191406 -11.34375 16.429688 -12.566406 16.703125 -13.546875 C 16.972656 -14.535156 17.332031 -15.421875 17.78125 -16.203125 C 17.414062 -17.097656 16.820312 -17.921875 16 -18.671875 C 15.175781 -19.421875 14.316406 -19.796875 13.421875 -19.796875 C 10.515625 -19.617188 8.175781 -18.585938 6.40625 -16.703125 C 4.644531 -14.816406 3.484375 -11.957031 2.921875 -8.125 C 2.828125 -8.539062 2.628906 -9.195312 2.328125 -10.09375 C 2.117188 -10.664062 1.929688 -11.234375 1.765625 -11.796875 C 1.609375 -12.367188 1.546875 -12.851562 1.578125 -13.25 C 2.140625 -15.820312 3.457031 -17.882812 5.53125 -19.4375 C 7.613281 -20.988281 10.570312 -21.859375 14.40625 -22.046875 C 14.882812 -22.046875 15.46875 -21.894531 16.15625 -21.59375 C 16.84375 -21.289062 17.519531 -20.898438 18.1875 -20.421875 C 22.882812 -23.566406 26.800781 -27.113281 29.9375 -31.0625 C 33.082031 -35.007812 34.65625 -38.882812 34.65625 -42.6875 C 34.65625 -45.226562 33.785156 -47.367188 32.046875 -49.109375 C 36.660156 -48.597656 38.96875 -46.519531 38.96875 -42.875 Z M 38.96875 -42.875 "/></g></g></g><g fill="#672901" fill-opacity="1"><g transform="translate(111.143648, 321.015596)"><g><path d="M 8.265625 0.171875 C 7.179688 0.171875 6.335938 -0.144531 5.734375 -0.78125 C 5.140625 -1.425781 4.84375 -2.195312 4.84375 -3.09375 C 4.84375 -4.113281 5.1875 -5.019531 5.875 -5.8125 C 6.5625 -6.601562 7.296875 -7 8.078125 -7 C 8.460938 -7 8.765625 -6.894531 8.984375 -6.6875 C 7.816406 -5.851562 7.234375 -4.640625 7.234375 -3.046875 C 7.234375 -2.148438 7.410156 -1.703125 7.765625 -1.703125 C 8.242188 -1.703125 8.707031 -2.8125 9.15625 -5.03125 C 9.425781 -6.28125 9.648438 -7.578125 9.828125 -8.921875 C 10.003906 -10.273438 10.09375 -11.101562 10.09375 -11.40625 C 10.09375 -12.175781 9.15625 -13.007812 7.28125 -13.90625 C 5.414062 -14.8125 3.601562 -15.425781 1.84375 -15.75 C 2.050781 -17.039062 2.519531 -18.15625 3.25 -19.09375 C 3.988281 -20.039062 4.863281 -20.753906 5.875 -21.234375 C 6.894531 -21.710938 7.914062 -21.953125 8.9375 -21.953125 C 9.5625 -21.953125 10.140625 -21.867188 10.671875 -21.703125 C 11.210938 -21.535156 11.859375 -21.304688 12.609375 -21.015625 C 13.296875 -20.742188 13.847656 -20.539062 14.265625 -20.40625 C 14.691406 -20.269531 15.128906 -20.203125 15.578125 -20.203125 C 16.328125 -20.203125 16.890625 -20.410156 17.265625 -20.828125 C 17.640625 -21.242188 17.914062 -21.914062 18.09375 -22.84375 L 18.3125 -22.765625 C 19.269531 -22.316406 19.75 -21.382812 19.75 -19.96875 C 19.75 -18.863281 19.425781 -17.988281 18.78125 -17.34375 C 18.144531 -16.707031 17.285156 -16.390625 16.203125 -16.390625 C 15.398438 -16.390625 14.691406 -16.535156 14.078125 -16.828125 C 13.460938 -17.128906 12.75 -17.582031 11.9375 -18.1875 C 11.25 -18.6875 10.695312 -19.050781 10.28125 -19.28125 C 9.863281 -19.507812 9.398438 -19.625 8.890625 -19.625 C 8.234375 -19.625 7.640625 -19.394531 7.109375 -18.9375 C 6.585938 -18.488281 6.191406 -17.878906 5.921875 -17.109375 C 8.460938 -16.328125 10.421875 -15.515625 11.796875 -14.671875 C 13.179688 -13.835938 13.875 -12.789062 13.875 -11.53125 C 13.875 -11 13.753906 -9.972656 13.515625 -8.453125 C 13.273438 -6.941406 13.066406 -5.769531 12.890625 -4.9375 C 12.140625 -1.53125 10.597656 0.171875 8.265625 0.171875 Z M 8.265625 0.171875 "/></g></g></g><g fill="#672901" fill-opacity="1"><g transform="translate(130.177269, 321.015596)"><g><path d="M 20.15625 -49.875 C 22.3125 -47.71875 23.390625 -45.1875 23.390625 -42.28125 C 23.390625 -39.144531 22.265625 -36.289062 20.015625 -33.71875 C 17.773438 -31.144531 14.8125 -29.125 11.125 -27.65625 C 7.445312 -26.1875 3.546875 -25.453125 -0.578125 -25.453125 C -2.222656 -25.453125 -3.8125 -25.585938 -5.34375 -25.859375 L -5.609375 -27.34375 C -4.328125 -27.613281 -3.144531 -28.03125 -2.0625 -28.59375 C -0.925781 -29.195312 -0.128906 -29.867188 0.328125 -30.609375 C 0.796875 -31.359375 1.03125 -32.332031 1.03125 -33.53125 C 1.03125 -34.875 0.742188 -35.546875 0.171875 -35.546875 C -0.148438 -35.546875 -0.382812 -35.359375 -0.53125 -34.984375 C -0.6875 -34.617188 -0.765625 -34.132812 -0.765625 -33.53125 C -0.765625 -32.457031 -0.582031 -31.515625 -0.21875 -30.703125 C -0.96875 -30.828125 -1.5625 -31.25 -2 -31.96875 C -2.4375 -32.6875 -2.65625 -33.429688 -2.65625 -34.203125 C -2.65625 -35.078125 -2.367188 -35.859375 -1.796875 -36.546875 C -1.222656 -37.234375 -0.488281 -37.578125 0.40625 -37.578125 C 1.300781 -37.578125 2.023438 -37.191406 2.578125 -36.421875 C 3.128906 -35.660156 3.40625 -34.695312 3.40625 -33.53125 C 3.40625 -32.125 3.015625 -30.894531 2.234375 -29.84375 C 1.460938 -28.800781 0.445312 -27.984375 -0.8125 -27.390625 C 5.050781 -27.679688 10.019531 -29.410156 14.09375 -32.578125 C 18.164062 -35.753906 20.203125 -41.039062 20.203125 -48.4375 Z M 20.15625 -49.875 "/></g></g></g><g fill="#672901" fill-opacity="1"><g transform="translate(133.945981, 321.015596)"><g><path d="M 8.84375 0 C 9.382812 -3.113281 10.253906 -7.316406 11.453125 -12.609375 C 12.015625 -14.941406 12.296875 -16.320312 12.296875 -16.75 C 12.296875 -17.039062 12.191406 -17.425781 11.984375 -17.90625 C 11.773438 -18.382812 11.46875 -18.8125 11.0625 -19.1875 C 10.65625 -19.5625 10.15625 -19.75 9.5625 -19.75 C 8.75 -19.75 7.910156 -19.378906 7.046875 -18.640625 C 6.179688 -17.910156 5.347656 -16.84375 4.546875 -15.4375 C 3.753906 -14.03125 3.109375 -12.359375 2.609375 -10.421875 L 2.375 -10.546875 C 2.375 -10.722656 2.335938 -11.015625 2.265625 -11.421875 C 2.191406 -11.828125 2.125 -12.148438 2.0625 -12.390625 C 2.03125 -12.535156 1.953125 -12.890625 1.828125 -13.453125 C 1.710938 -14.023438 1.671875 -14.445312 1.703125 -14.71875 C 2.148438 -16.25 2.867188 -17.566406 3.859375 -18.671875 C 4.847656 -19.773438 5.941406 -20.601562 7.140625 -21.15625 C 8.335938 -21.71875 9.472656 -22 10.546875 -22 C 11.710938 -22 12.726562 -21.695312 13.59375 -21.09375 C 14.46875 -20.5 15.144531 -19.8125 15.625 -19.03125 C 16.101562 -18.25 16.34375 -17.632812 16.34375 -17.1875 C 16.34375 -16.863281 16.070312 -15.472656 15.53125 -13.015625 C 14.539062 -8.796875 13.660156 -4.457031 12.890625 0 Z M 8.84375 0 "/></g></g></g><g fill="#672901" fill-opacity="1"><g transform="translate(155.267103, 321.015596)"><g><path d="M 9.875 0.09375 C 9.039062 0.09375 8.195312 0.00390625 7.34375 -0.171875 C 6.488281 -0.359375 5.835938 -0.554688 5.390625 -0.765625 C 5.535156 -2.109375 5.609375 -3.304688 5.609375 -4.359375 C 5.523438 -12.492188 3.488281 -17.695312 -0.5 -19.96875 C 0.25 -20.957031 1.238281 -21.453125 2.46875 -21.453125 C 4.476562 -21.453125 5.921875 -20.082031 6.796875 -17.34375 C 7.679688 -14.613281 8.125 -10.941406 8.125 -6.328125 C 8.125 -5.460938 8.09375 -4.128906 8.03125 -2.328125 C 8.507812 -2.117188 9.15625 -2.015625 9.96875 -2.015625 C 10.957031 -2.015625 11.644531 -2.148438 12.03125 -2.421875 C 12.175781 -3.890625 12.414062 -5.28125 12.75 -6.59375 C 13.082031 -7.914062 13.5625 -9.59375 14.1875 -11.625 C 14.75 -13.414062 15.15625 -14.835938 15.40625 -15.890625 C 15.664062 -16.941406 15.796875 -17.929688 15.796875 -18.859375 C 15.796875 -19.273438 15.757812 -19.570312 15.6875 -19.75 C 15.613281 -19.925781 15.488281 -20.015625 15.3125 -20.015625 C 14.914062 -20.015625 14.59375 -19.710938 14.34375 -19.109375 C 14.09375 -18.515625 13.96875 -17.847656 13.96875 -17.109375 C 13.96875 -16.421875 13.988281 -15.847656 14.03125 -15.390625 C 14.070312 -14.941406 14.179688 -14.492188 14.359375 -14.046875 C 13.492188 -14.253906 12.851562 -14.664062 12.4375 -15.28125 C 12.019531 -15.894531 11.8125 -16.679688 11.8125 -17.640625 C 11.8125 -19.015625 12.222656 -20.132812 13.046875 -21 C 13.867188 -21.875 14.878906 -22.3125 16.078125 -22.3125 C 17.023438 -22.3125 17.773438 -22.003906 18.328125 -21.390625 C 18.890625 -20.773438 19.171875 -19.882812 19.171875 -18.71875 C 19.171875 -17.789062 19.003906 -16.726562 18.671875 -15.53125 C 18.347656 -14.332031 17.851562 -12.75 17.1875 -10.78125 C 16.5 -8.738281 15.9375 -6.9375 15.5 -5.375 C 15.070312 -3.820312 14.785156 -2.316406 14.640625 -0.859375 C 14.210938 -0.554688 13.519531 -0.320312 12.5625 -0.15625 C 11.613281 0.0078125 10.71875 0.09375 9.875 0.09375 Z M 9.875 0.09375 "/></g></g></g><g fill="#672901" fill-opacity="1"><g transform="translate(178.742718, 321.015596)"><g><path d="M 12.890625 -22 C 14.171875 -22 15.492188 -21.691406 16.859375 -21.078125 C 18.222656 -20.460938 19.320312 -19.710938 20.15625 -18.828125 C 20.988281 -17.941406 21.347656 -17.128906 21.234375 -16.390625 L 20.015625 -10.140625 C 19.054688 -5.359375 18.398438 -1.976562 18.046875 0 L 14 0 C 14.601562 -3.289062 15.234375 -6.523438 15.890625 -9.703125 L 17.109375 -16.109375 C 17.160156 -16.441406 17.019531 -16.890625 16.6875 -17.453125 C 16.363281 -18.023438 15.8125 -18.535156 15.03125 -18.984375 C 14.257812 -19.429688 13.273438 -19.65625 12.078125 -19.65625 C 10.222656 -19.65625 8.769531 -19.054688 7.71875 -17.859375 C 6.675781 -16.671875 6.15625 -14.863281 6.15625 -12.4375 L 6.1875 -9.734375 L 6.28125 -6.15625 C 6.28125 -5.375 6.265625 -4.789062 6.234375 -4.40625 C 6.773438 -5.269531 7.703125 -6.359375 9.015625 -7.671875 C 10.035156 -8.691406 10.769531 -9.535156 11.21875 -10.203125 C 11.664062 -10.878906 11.890625 -11.65625 11.890625 -12.53125 C 11.890625 -13.25 11.695312 -13.609375 11.3125 -13.609375 C 10.976562 -13.609375 10.671875 -13.359375 10.390625 -12.859375 C 10.109375 -12.367188 9.890625 -11.734375 9.734375 -10.953125 C 9.617188 -10.117188 9.578125 -9.429688 9.609375 -8.890625 C 9.191406 -9.003906 8.851562 -9.269531 8.59375 -9.6875 C 8.34375 -10.113281 8.21875 -10.65625 8.21875 -11.3125 C 8.21875 -12.445312 8.5625 -13.441406 9.25 -14.296875 C 9.9375 -15.148438 10.800781 -15.578125 11.84375 -15.578125 C 12.5625 -15.578125 13.148438 -15.34375 13.609375 -14.875 C 14.078125 -14.414062 14.3125 -13.707031 14.3125 -12.75 C 14.3125 -11.644531 14.019531 -10.640625 13.4375 -9.734375 C 12.851562 -8.835938 11.953125 -7.734375 10.734375 -6.421875 C 9.535156 -5.128906 8.617188 -4.023438 7.984375 -3.109375 C 7.359375 -2.203125 6.941406 -1.164062 6.734375 0 C 6.460938 0.09375 5.816406 0.140625 4.796875 0.140625 C 3.453125 0.140625 2.570312 0.09375 2.15625 0 C 2.425781 -0.988281 2.632812 -1.847656 2.78125 -2.578125 C 2.925781 -3.316406 3 -4.070312 3 -4.84375 C 3 -5.957031 2.835938 -7.53125 2.515625 -9.5625 C 2.484375 -9.914062 2.40625 -10.539062 2.28125 -11.4375 C 2.164062 -12.34375 2.109375 -13.050781 2.109375 -13.5625 C 2.109375 -15.445312 2.734375 -17.023438 3.984375 -18.296875 C 5.242188 -19.566406 6.71875 -20.5 8.40625 -21.09375 C 10.101562 -21.695312 11.597656 -22 12.890625 -22 Z M 12.890625 -22 "/></g></g></g><g fill="#672901" fill-opacity="1"><g transform="translate(201.726708, 321.015596)"><g><path d="M 20.15625 -49.875 C 22.3125 -47.71875 23.390625 -45.1875 23.390625 -42.28125 C 23.390625 -39.144531 22.265625 -36.289062 20.015625 -33.71875 C 17.773438 -31.144531 14.8125 -29.125 11.125 -27.65625 C 7.445312 -26.1875 3.546875 -25.453125 -0.578125 -25.453125 C -2.222656 -25.453125 -3.8125 -25.585938 -5.34375 -25.859375 L -5.609375 -27.34375 C -4.328125 -27.613281 -3.144531 -28.03125 -2.0625 -28.59375 C -0.925781 -29.195312 -0.128906 -29.867188 0.328125 -30.609375 C 0.796875 -31.359375 1.03125 -32.332031 1.03125 -33.53125 C 1.03125 -34.875 0.742188 -35.546875 0.171875 -35.546875 C -0.148438 -35.546875 -0.382812 -35.359375 -0.53125 -34.984375 C -0.6875 -34.617188 -0.765625 -34.132812 -0.765625 -33.53125 C -0.765625 -32.457031 -0.582031 -31.515625 -0.21875 -30.703125 C -0.96875 -30.828125 -1.5625 -31.25 -2 -31.96875 C -2.4375 -32.6875 -2.65625 -33.429688 -2.65625 -34.203125 C -2.65625 -35.078125 -2.367188 -35.859375 -1.796875 -36.546875 C -1.222656 -37.234375 -0.488281 -37.578125 0.40625 -37.578125 C 1.300781 -37.578125 2.023438 -37.191406 2.578125 -36.421875 C 3.128906 -35.660156 3.40625 -34.695312 3.40625 -33.53125 C 3.40625 -32.125 3.015625 -30.894531 2.234375 -29.84375 C 1.460938 -28.800781 0.445312 -27.984375 -0.8125 -27.390625 C 5.050781 -27.679688 10.019531 -29.410156 14.09375 -32.578125 C 18.164062 -35.753906 20.203125 -41.039062 20.203125 -48.4375 Z M 20.15625 -49.875 "/></g></g></g><g fill="#672901" fill-opacity="1"><g transform="translate(205.31542, 321.015596)"><g><path d="M 9.96875 0.171875 C 8.863281 0.171875 8.015625 -0.140625 7.421875 -0.765625 C 6.835938 -1.390625 6.546875 -2.253906 6.546875 -3.359375 C 6.546875 -4.617188 6.875 -5.691406 7.53125 -6.578125 C 8.195312 -7.460938 9.007812 -7.90625 9.96875 -7.90625 C 10.269531 -7.90625 10.566406 -7.859375 10.859375 -7.765625 C 10.234375 -7.222656 9.75 -6.554688 9.40625 -5.765625 C 9.0625 -4.972656 8.890625 -4.171875 8.890625 -3.359375 C 8.890625 -2.941406 8.945312 -2.628906 9.0625 -2.421875 C 9.1875 -2.210938 9.382812 -2.109375 9.65625 -2.109375 C 10.101562 -2.109375 10.445312 -2.367188 10.6875 -2.890625 C 10.925781 -3.421875 11.148438 -4.207031 11.359375 -5.25 C 11.921875 -7.945312 12.378906 -10.070312 12.734375 -11.625 C 13.097656 -13.1875 13.597656 -14.9375 14.234375 -16.875 C 14.285156 -17.207031 14.117188 -17.570312 13.734375 -17.96875 C 13.347656 -18.375 12.890625 -18.734375 12.359375 -19.046875 C 11.835938 -19.367188 11.472656 -19.53125 11.265625 -19.53125 C 9.523438 -19.53125 7.988281 -18.847656 6.65625 -17.484375 C 5.332031 -16.117188 4.445312 -14.195312 4 -11.71875 C 3.757812 -10.34375 3.59375 -8.738281 3.5 -6.90625 L 3.28125 -7.140625 C 3.1875 -7.378906 3 -7.6875 2.71875 -8.0625 C 2.4375 -8.4375 2.265625 -8.664062 2.203125 -8.75 C 1.453125 -9.59375 1.046875 -10.238281 0.984375 -10.6875 C 1.140625 -12.175781 1.242188 -13.085938 1.296875 -13.421875 C 1.660156 -15.210938 2.394531 -16.75 3.5 -18.03125 C 4.601562 -19.320312 5.878906 -20.304688 7.328125 -20.984375 C 8.785156 -21.660156 10.203125 -22 11.578125 -22 C 13.015625 -22 14.226562 -21.695312 15.21875 -21.09375 C 16.207031 -20.5 16.941406 -19.8125 17.421875 -19.03125 C 17.898438 -18.25 18.140625 -17.632812 18.140625 -17.1875 C 17.179688 -14.4375 16.296875 -11.117188 15.484375 -7.234375 L 15.078125 -5.4375 C 14.722656 -3.90625 14.191406 -2.585938 13.484375 -1.484375 C 12.785156 -0.378906 11.613281 0.171875 9.96875 0.171875 Z M 9.96875 0.171875 "/></g></g></g><g fill="#672901" fill-opacity="1"><g transform="translate(227.893336, 321.015596)"><g><path d="M 22.046875 -21.765625 C 21.835938 -20.628906 21.359375 -18.503906 20.609375 -15.390625 C 20.035156 -13.117188 19.609375 -11.253906 19.328125 -9.796875 C 19.046875 -8.347656 18.90625 -7.039062 18.90625 -5.875 C 18.90625 -5.25 18.945312 -4.769531 19.03125 -4.4375 C 17.65625 -3.03125 16.097656 -1.910156 14.359375 -1.078125 C 12.628906 -0.242188 10.957031 0.171875 9.34375 0.171875 C 8.082031 0.171875 6.867188 -0.0703125 5.703125 -0.5625 C 4.535156 -1.050781 3.582031 -1.726562 2.84375 -2.59375 C 2.113281 -3.46875 1.75 -4.429688 1.75 -5.484375 C 1.75 -6.523438 2.109375 -7.546875 2.828125 -8.546875 C 3.546875 -9.554688 4.488281 -10.285156 5.65625 -10.734375 C 4.875 -11.179688 4.273438 -11.816406 3.859375 -12.640625 C 3.441406 -13.460938 3.234375 -14.410156 3.234375 -15.484375 C 3.234375 -16.742188 3.515625 -17.875 4.078125 -18.875 C 4.648438 -19.875 5.398438 -20.648438 6.328125 -21.203125 C 7.253906 -21.765625 8.210938 -22.046875 9.203125 -22.046875 C 10.015625 -22.046875 10.65625 -21.847656 11.125 -21.453125 C 11.601562 -21.066406 11.84375 -20.484375 11.84375 -19.703125 C 11.84375 -18.984375 11.640625 -18.265625 11.234375 -17.546875 C 10.835938 -16.828125 10.285156 -16.242188 9.578125 -15.796875 C 8.878906 -15.347656 8.125 -15.125 7.3125 -15.125 C 7.882812 -15.8125 8.382812 -16.570312 8.8125 -17.40625 C 9.25 -18.25 9.46875 -18.957031 9.46875 -19.53125 C 9.46875 -20.007812 9.289062 -20.25 8.9375 -20.25 C 8.519531 -20.25 8.125 -19.929688 7.75 -19.296875 C 7.375 -18.671875 7.078125 -17.929688 6.859375 -17.078125 C 6.648438 -16.222656 6.546875 -15.484375 6.546875 -14.859375 C 6.546875 -13.003906 7.640625 -12.078125 9.828125 -12.078125 C 11.148438 -12.078125 12.210938 -12.375 13.015625 -12.96875 C 13.109375 -12.675781 13.15625 -12.394531 13.15625 -12.125 C 13.15625 -11.375 12.890625 -10.75 12.359375 -10.25 C 11.835938 -9.757812 11.175781 -9.515625 10.375 -9.515625 C 10.101562 -9.515625 9.75 -9.550781 9.3125 -9.625 C 8.875 -9.695312 8.582031 -9.734375 8.4375 -9.734375 C 7.632812 -9.734375 7.003906 -9.273438 6.546875 -8.359375 C 6.097656 -7.453125 5.875 -6.582031 5.875 -5.75 C 5.875 -4.695312 6.28125 -3.828125 7.09375 -3.140625 C 7.90625 -2.453125 8.757812 -2.109375 9.65625 -2.109375 C 10.457031 -2.109375 11.410156 -2.375 12.515625 -2.90625 C 13.628906 -3.445312 14.46875 -4.066406 15.03125 -4.765625 C 14.976562 -5.296875 14.953125 -5.757812 14.953125 -6.15625 C 14.953125 -7.257812 15.078125 -8.535156 15.328125 -9.984375 C 15.585938 -11.441406 16 -13.441406 16.5625 -15.984375 C 16.945312 -17.710938 17.351562 -19.640625 17.78125 -21.765625 Z M 22.046875 -21.765625 "/></g></g></g><g fill="#672901" fill-opacity="1"><g transform="translate(253.972297, 321.015596)"><g><path d="M 5.03125 0.359375 C 2.84375 0.359375 1.75 -0.972656 1.75 -3.640625 C 1.75 -4.710938 1.921875 -5.957031 2.265625 -7.375 C 2.609375 -8.800781 3.140625 -10.757812 3.859375 -13.25 C 5.203125 -17.757812 6.253906 -21.90625 7.015625 -25.6875 C 7.785156 -29.476562 8.171875 -33.617188 8.171875 -38.109375 C 8.171875 -43.890625 7.390625 -46.78125 5.828125 -46.78125 C 5.234375 -46.78125 4.671875 -46.375 4.140625 -45.5625 C 3.617188 -44.757812 3.191406 -43.628906 2.859375 -42.171875 C 2.535156 -40.722656 2.375 -39.070312 2.375 -37.21875 C 2.375 -32.394531 3.515625 -28.304688 5.796875 -24.953125 C 4.566406 -25.015625 3.609375 -25.132812 2.921875 -25.3125 C 2.234375 -25.5 1.664062 -25.921875 1.21875 -26.578125 C 0.46875 -27.585938 -0.0820312 -29.070312 -0.4375 -31.03125 C -0.800781 -33 -0.984375 -34.910156 -0.984375 -36.765625 C -0.984375 -38.953125 -0.722656 -40.972656 -0.203125 -42.828125 C 0.316406 -44.679688 1.09375 -46.160156 2.125 -47.265625 C 3.164062 -48.378906 4.414062 -48.9375 5.875 -48.9375 C 8.125 -48.9375 9.6875 -47.753906 10.5625 -45.390625 C 11.445312 -43.023438 11.890625 -40.222656 11.890625 -36.984375 C 11.890625 -33.660156 11.535156 -30.269531 10.828125 -26.8125 C 10.128906 -23.363281 9.140625 -19.316406 7.859375 -14.671875 C 7.046875 -11.742188 6.445312 -9.421875 6.0625 -7.703125 C 5.675781 -5.984375 5.484375 -4.523438 5.484375 -3.328125 C 5.484375 -2.847656 5.523438 -2.507812 5.609375 -2.3125 C 5.703125 -2.113281 5.851562 -2.015625 6.0625 -2.015625 C 6.539062 -2.015625 6.90625 -2.359375 7.15625 -3.046875 C 7.414062 -3.734375 7.546875 -4.453125 7.546875 -5.203125 C 7.546875 -6.128906 7.410156 -6.910156 7.140625 -7.546875 C 8.753906 -7.148438 9.5625 -6.128906 9.5625 -4.484375 C 9.5625 -3.203125 9.140625 -2.070312 8.296875 -1.09375 C 7.460938 -0.125 6.375 0.359375 5.03125 0.359375 Z M 5.03125 0.359375 "/></g></g></g><g fill="#672901" fill-opacity="1"><g transform="translate(268.91971, 321.015596)"><g><path d="M 13.609375 -22.21875 C 14.316406 -22.21875 15.253906 -21.910156 16.421875 -21.296875 C 17.597656 -20.679688 18.625 -19.929688 19.5 -19.046875 C 20.382812 -18.171875 20.828125 -17.328125 20.828125 -16.515625 C 20.828125 -16.242188 20.660156 -15.675781 20.328125 -14.8125 C 20.003906 -13.945312 19.617188 -12.972656 19.171875 -11.890625 C 18.242188 -9.585938 17.5 -7.703125 16.9375 -6.234375 C 16.382812 -4.773438 15.898438 -3.28125 15.484375 -1.75 C 15.367188 -1.332031 15.3125 -0.75 15.3125 0 C 15.039062 0.09375 14.628906 0.160156 14.078125 0.203125 C 13.523438 0.242188 13.066406 0.265625 12.703125 0.265625 C 12.160156 0.265625 11.625 0.175781 11.09375 0 C 11.269531 -0.6875 11.414062 -1.550781 11.53125 -2.59375 C 11.65625 -3.644531 11.71875 -4.546875 11.71875 -5.296875 C 11.71875 -7.273438 11.492188 -8.921875 11.046875 -10.234375 C 10.597656 -11.546875 10.03125 -12.203125 9.34375 -12.203125 C 9.101562 -12.203125 8.9375 -12.113281 8.84375 -11.9375 C 8.75 -11.757812 8.703125 -11.460938 8.703125 -11.046875 C 8.703125 -10.328125 8.925781 -9.660156 9.375 -9.046875 C 9.832031 -8.429688 10.390625 -7.929688 11.046875 -7.546875 C 10.742188 -7.335938 10.320312 -7.234375 9.78125 -7.234375 C 8.976562 -7.234375 8.253906 -7.628906 7.609375 -8.421875 C 6.960938 -9.210938 6.640625 -10.085938 6.640625 -11.046875 C 6.640625 -12.054688 6.914062 -12.859375 7.46875 -13.453125 C 8.03125 -14.054688 8.800781 -14.359375 9.78125 -14.359375 C 10.382812 -14.359375 10.992188 -14.132812 11.609375 -13.6875 C 12.222656 -13.238281 12.738281 -12.5 13.15625 -11.46875 C 13.570312 -10.4375 13.78125 -9.082031 13.78125 -7.40625 L 13.78125 -7.234375 C 14.289062 -8.929688 14.9375 -10.785156 15.71875 -12.796875 C 16.4375 -14.742188 16.796875 -15.910156 16.796875 -16.296875 C 16.796875 -17.128906 16.457031 -17.921875 15.78125 -18.671875 C 15.101562 -19.421875 14.300781 -19.84375 13.375 -19.9375 C 11.695312 -19.9375 10.195312 -19.441406 8.875 -18.453125 C 7.5625 -17.460938 6.53125 -16.171875 5.78125 -14.578125 C 5.039062 -12.992188 4.671875 -11.320312 4.671875 -9.5625 C 4.671875 -7.675781 5.117188 -5.671875 6.015625 -3.546875 L 5.796875 -3.09375 C 5.671875 -3.15625 5.523438 -3.238281 5.359375 -3.34375 C 5.203125 -3.445312 5.015625 -3.5625 4.796875 -3.6875 C 4.054688 -4.132812 3.472656 -4.5 3.046875 -4.78125 C 2.628906 -5.0625 2.316406 -5.382812 2.109375 -5.75 C 1.753906 -6.257812 1.476562 -6.945312 1.28125 -7.8125 C 1.082031 -8.675781 0.984375 -9.515625 0.984375 -10.328125 C 0.984375 -12.359375 1.613281 -14.285156 2.875 -16.109375 C 4.132812 -17.941406 5.75 -19.414062 7.71875 -20.53125 C 9.695312 -21.65625 11.660156 -22.21875 13.609375 -22.21875 Z M 13.609375 -22.21875 "/></g></g></g><path fill="#ad873e" d="M 334.917969 100.242188 C 334.851562 100.273438 325.667969 103.15625 312.089844 99.203125 C 307.796875 97.960938 303.539062 97.222656 299.449219 96.988281 L 298.613281 96.957031 L 299.015625 96.21875 C 301.496094 91.757812 305.148438 82.507812 301.964844 70.539062 L 301.765625 69.800781 L 300.992188 69.769531 C 299.148438 69.703125 282.65625 69.535156 274.242188 81.265625 L 273.503906 82.273438 L 273.304688 81.03125 C 270.386719 63.367188 263.78125 48.480469 263.515625 47.84375 L 262.640625 45.898438 L 261.636719 47.777344 C 261.601562 47.84375 257.511719 55.21875 244.839844 61.589844 C 243.234375 62.394531 241.691406 63.332031 239.980469 64.539062 L 239.242188 65.042969 L 239.144531 64.136719 C 237.769531 50.625 220.035156 38.925781 219.296875 38.425781 L 218.726562 38.054688 L 218.191406 38.523438 C 204.480469 47.410156 200.421875 54.785156 199.417969 59.410156 L 199.214844 60.316406 L 198.546875 59.679688 C 192.980469 54.480469 189.125 51.195312 188.957031 51.0625 L 188.386719 50.59375 L 187.75 50.960938 C 187.71875 50.996094 182.152344 54.347656 174.878906 60.082031 L 174.207031 60.617188 L 174.039062 59.777344 C 173.371094 55.921875 169.984375 48.078125 155 38.960938 L 154.429688 38.589844 L 153.894531 38.992188 C 153.15625 39.496094 135.691406 51.734375 134.71875 65.308594 L 134.652344 66.214844 L 133.914062 65.710938 C 132.136719 64.539062 130.59375 63.632812 128.984375 62.828125 C 116.144531 56.628906 111.820312 49.519531 111.789062 49.453125 L 110.714844 47.675781 L 109.910156 49.585938 C 109.675781 50.191406 103.875 64.238281 101.292969 81.199219 L 101.195312 82.441406 L 100.457031 81.433594 C 91.105469 68.496094 73.570312 71.476562 73.402344 71.511719 L 72.734375 71.644531 L 72.566406 72.316406 C 69.546875 84.484375 73.203125 94.242188 75.648438 99 L 76.019531 99.671875 L 75.246094 99.738281 C 71.222656 100.074219 67.066406 100.945312 62.878906 102.285156 C 49.535156 106.609375 40.183594 103.996094 40.082031 103.960938 L 38.238281 103.425781 L 38.742188 105.269531 C 39.074219 106.410156 47.253906 133.328125 79.839844 151.902344 C 85.371094 155.050781 91.574219 157.566406 98.277344 159.277344 L 100.1875 159.777344 L 98.277344 160.28125 C 93.71875 161.523438 89.023438 163.601562 84.332031 166.515625 C 76.957031 171.109375 68.8125 171.679688 68.742188 171.679688 L 66.53125 171.8125 L 68.074219 173.421875 C 68.273438 173.625 86.175781 191.925781 114.535156 191.925781 C 123.988281 191.925781 133.609375 189.816406 143.199219 185.660156 L 143.632812 185.492188 L 143.871094 185.894531 C 145.445312 188.640625 147.792969 191.257812 150.808594 193.636719 L 151.210938 193.9375 L 151.210938 193.972656 C 151.3125 194.039062 151.445312 194.171875 151.613281 194.273438 C 160.464844 200.8125 173.203125 204.597656 186.679688 204.667969 L 187.316406 204.667969 C 198.679688 204.667969 226.070312 202.890625 235.019531 186.296875 L 235.253906 185.894531 L 235.691406 186.09375 C 245.042969 190.117188 254.394531 192.160156 263.515625 192.160156 C 263.515625 192.160156 263.515625 192.160156 263.546875 192.160156 C 291.941406 192.160156 309.441406 172.953125 309.609375 172.75 L 311.015625 171.175781 L 308.90625 171.042969 C 308.835938 171.042969 300.691406 170.472656 293.316406 165.878906 C 288.054688 162.628906 282.824219 160.382812 277.761719 159.242188 L 275.917969 158.839844 L 277.695312 158.269531 C 284.230469 156.125 290.566406 153.105469 296.5 149.351562 C 328.214844 129.339844 335.957031 102.722656 336.257812 101.617188 L 336.761719 99.738281 Z M 334.917969 100.242188 " fill-opacity="1" fill-rule="nonzero"/><g clip-path="url(#006a282641)"><path fill="#672901" d="M 334.75 99.773438 C 334.652344 99.804688 325.699219 102.65625 312.222656 98.734375 C 307.5625 97.390625 303.339844 96.6875 299.484375 96.488281 C 301.863281 92.230469 305.753906 82.707031 302.46875 70.472656 L 302.167969 69.367188 L 301.027344 69.332031 C 300.1875 69.300781 282.621094 68.796875 273.839844 81.03125 C 270.921875 63.433594 264.453125 48.714844 264.015625 47.742188 L 262.710938 44.859375 L 261.199219 47.675781 C 261.167969 47.742188 257.179688 54.984375 244.640625 61.285156 C 242.832031 62.191406 241.222656 63.164062 239.710938 64.238281 C 238.269531 50.527344 220.402344 38.726562 219.597656 38.1875 L 218.761719 37.519531 L 217.921875 38.054688 C 203.707031 47.273438 199.851562 54.949219 198.914062 59.308594 C 193.316406 54.078125 189.394531 50.761719 189.328125 50.695312 L 188.488281 49.957031 L 187.515625 50.527344 C 187.417969 50.59375 181.851562 53.945312 174.609375 59.679688 C 173.839844 55.351562 170.152344 47.542969 155.335938 38.523438 L 154.460938 37.988281 L 153.625 38.558594 C 152.820312 39.128906 135.253906 51.429688 134.25 65.210938 C 132.738281 64.203125 131.097656 63.230469 129.253906 62.359375 C 116.582031 56.226562 112.324219 49.253906 112.289062 49.183594 L 110.714844 46.503906 L 109.507812 49.386719 C 109.105469 50.359375 103.441406 64.238281 100.859375 81.097656 C 91.304688 67.925781 73.46875 70.941406 73.304688 70.976562 L 72.296875 71.144531 L 72.0625 72.113281 C 68.945312 84.6875 72.933594 94.777344 75.179688 99.132812 C 71.390625 99.46875 67.269531 100.273438 62.710938 101.714844 C 49.433594 106.007812 40.316406 103.425781 40.214844 103.390625 L 37.5 102.621094 L 38.304688 105.335938 C 38.640625 106.476562 46.851562 133.597656 79.640625 152.269531 C 85.605469 155.65625 91.875 158.070312 98.175781 159.710938 C 94.289062 160.75 89.527344 162.660156 84.132812 166.015625 C 76.921875 170.503906 68.84375 171.074219 68.742188 171.074219 L 65.390625 171.308594 L 67.703125 173.722656 C 67.9375 173.957031 86.074219 192.363281 114.503906 192.363281 C 123.21875 192.363281 132.90625 190.621094 143.367188 186.128906 C 149.601562 196.957031 167 205 186.644531 205.101562 C 186.847656 205.101562 187.082031 205.101562 187.316406 205.101562 C 199.519531 205.101562 226.4375 203.125 235.453125 186.464844 C 245.644531 190.855469 255.03125 192.5625 263.480469 192.5625 C 292.007812 192.5625 309.710938 173.253906 309.945312 172.988281 L 312.089844 170.605469 L 308.90625 170.40625 C 308.835938 170.40625 300.757812 169.835938 293.515625 165.34375 C 287.316406 161.488281 281.984375 159.578125 277.863281 158.636719 C 284.03125 156.59375 290.367188 153.710938 296.734375 149.6875 C 328.617188 129.574219 336.425781 102.789062 336.730469 101.648438 L 337.5 98.832031 Z M 299.753906 72.417969 C 302.601562 84.785156 297.40625 94.039062 295.863281 96.417969 C 289.328125 96.621094 284.0625 98.261719 279.972656 100.339844 C 280.207031 100.140625 280.410156 99.9375 280.644531 99.738281 C 282.65625 97.792969 284.5 95.714844 286.175781 93.503906 C 287.886719 91.324219 289.328125 88.945312 290.601562 86.496094 C 291.910156 84.082031 292.78125 81.433594 293.550781 78.820312 C 292.546875 81.367188 291.4375 83.847656 289.929688 86.09375 C 288.488281 88.375 286.847656 90.519531 285.003906 92.496094 C 283.191406 94.476562 281.214844 96.285156 279.101562 97.960938 C 277.828125 98.96875 276.488281 99.9375 275.113281 100.84375 C 275.382812 95.847656 275.113281 90.820312 274.507812 85.894531 C 280.375 73.859375 295.460938 72.515625 299.753906 72.417969 Z M 246.046875 63.96875 C 255.066406 59.441406 259.960938 54.480469 262.273438 51.566406 C 265.929688 60.71875 277.089844 92.027344 269.582031 114.589844 C 264.921875 128.566406 251.546875 142.144531 234.652344 149.988281 C 225.296875 154.347656 216.378906 156.191406 209.207031 155.421875 C 210.949219 154.882812 212.625 154.28125 214.234375 153.644531 C 222.984375 152.167969 230.929688 148.480469 237.835938 143.320312 C 244.773438 138.121094 250.273438 131.183594 254.027344 123.507812 C 257.816406 115.796875 259.792969 107.382812 260.699219 98.933594 C 261.601562 90.484375 261.269531 81.972656 260.296875 73.554688 C 261 81.972656 261.066406 90.484375 259.925781 98.832031 C 258.789062 107.179688 256.574219 115.394531 252.652344 122.800781 C 248.765625 130.175781 243.265625 136.679688 236.460938 141.441406 C 232.671875 144.121094 228.480469 146.335938 224.125 147.945312 C 226.371094 146.203125 228.347656 144.257812 230.058594 142.113281 C 230.695312 141.609375 230.996094 141.273438 231.464844 140.871094 L 232.875 139.464844 C 233.746094 138.492188 234.652344 137.519531 235.457031 136.480469 C 237.132812 134.46875 238.640625 132.324219 240.082031 130.144531 C 242.898438 125.753906 245.175781 121.027344 246.820312 116.097656 C 248.527344 111.167969 249.367188 106.007812 249.5 100.84375 C 249.804688 95.683594 248.832031 90.554688 247.691406 85.558594 C 248.5625 90.585938 249.265625 95.714844 248.730469 100.777344 C 248.328125 105.839844 247.253906 110.867188 245.378906 115.5625 C 243.535156 120.289062 241.121094 124.746094 238.171875 128.835938 C 237.332031 129.976562 236.496094 131.082031 235.621094 132.1875 C 240.25 118.980469 237.164062 102.351562 227.441406 89.714844 C 227.410156 89.648438 227.34375 89.582031 227.308594 89.546875 C 227.710938 86.363281 230.828125 71.578125 246.046875 63.96875 Z M 218.726562 41.238281 C 222.414062 43.855469 237.230469 55.019531 236.660156 66.449219 C 228.816406 73.222656 225.765625 81.601562 224.660156 86.261719 C 224.425781 85.992188 224.226562 85.726562 223.988281 85.457031 C 224.226562 82.84375 224.191406 80.363281 224.023438 77.847656 C 223.855469 75.097656 223.519531 72.351562 223.085938 69.632812 C 222.582031 66.953125 222.046875 64.269531 221.273438 61.621094 C 220.570312 58.972656 219.664062 56.425781 218.726562 53.878906 C 219.429688 56.492188 220.066406 59.140625 220.503906 61.789062 C 221.007812 64.4375 221.308594 67.121094 221.507812 69.800781 C 221.710938 72.484375 221.777344 75.164062 221.675781 77.847656 C 221.609375 79.355469 221.507812 80.863281 221.339844 82.339844 C 214.839844 74.796875 207.664062 67.589844 201.730469 61.957031 C 201.664062 60.246094 202.199219 52.234375 218.726562 41.238281 Z M 188.152344 53.8125 C 192.445312 57.53125 211.855469 74.695312 224.863281 91.558594 C 234.71875 104.332031 237.332031 121.429688 231.398438 134.03125 C 228.449219 140.269531 222.617188 147.410156 211.015625 151.566406 C 212.828125 148.378906 214.203125 145.09375 215.339844 141.640625 C 216.882812 136.882812 217.890625 131.921875 218.257812 126.960938 C 218.359375 125.71875 218.359375 124.476562 218.390625 123.238281 L 218.457031 121.359375 L 218.359375 119.484375 L 218.15625 115.761719 L 217.652344 112.074219 C 217.417969 109.59375 216.714844 107.214844 216.246094 104.800781 C 215.644531 102.421875 214.839844 100.074219 214.167969 97.726562 C 214.738281 100.140625 215.40625 102.488281 215.878906 104.902344 C 216.210938 107.347656 216.816406 109.726562 216.882812 112.175781 L 217.183594 115.828125 L 217.183594 121.328125 L 217.050781 123.136719 C 216.949219 124.34375 216.882812 125.585938 216.714844 126.757812 C 216.113281 131.585938 214.871094 136.3125 213.164062 140.804688 C 211.484375 145.128906 209.238281 149.386719 206.523438 152.90625 C 204.648438 153.375 202.636719 153.8125 200.523438 154.144531 C 202.5 149.488281 203.707031 144.726562 204.613281 139.832031 C 205.6875 134.03125 206.089844 128.164062 206.121094 122.332031 C 206.023438 119.417969 205.988281 116.5 205.6875 113.582031 C 205.484375 110.667969 205.050781 107.785156 204.613281 104.902344 C 204.210938 102.019531 203.472656 99.203125 202.902344 96.351562 C 202.199219 93.535156 201.394531 90.71875 200.65625 87.9375 C 201.292969 90.789062 201.964844 93.601562 202.535156 96.453125 C 202.972656 99.335938 203.574219 102.152344 203.84375 105.035156 C 204.144531 107.917969 204.480469 110.800781 204.546875 113.683594 C 204.746094 116.566406 204.648438 119.449219 204.613281 122.332031 C 204.34375 128.097656 203.675781 133.832031 202.402344 139.394531 C 201.160156 144.660156 199.484375 150.023438 197.039062 154.617188 C 195.261719 154.816406 193.417969 154.917969 191.4375 155.019531 C 191.4375 152.035156 191.269531 149.253906 191.136719 146.367188 L 190.601562 136.144531 L 189.460938 115.730469 L 187.25 74.898438 L 187.917969 115.796875 L 188.289062 136.246094 L 188.421875 146.46875 C 188.421875 149.320312 188.488281 152.300781 188.386719 155.085938 C 187.082031 155.050781 185.40625 154.984375 183.492188 154.785156 C 180.878906 150.125 178.835938 144.925781 177.226562 139.699219 C 175.550781 134.167969 174.273438 128.5 173.636719 122.734375 C 173 116.96875 172.664062 111.136719 173.066406 105.335938 C 173.136719 102.421875 173.570312 99.535156 173.871094 96.621094 C 174.242188 93.738281 174.910156 90.886719 175.414062 88.003906 C 174.777344 90.855469 174.007812 93.671875 173.503906 96.585938 C 173.066406 99.46875 172.5 102.351562 172.296875 105.304688 C 171.625 111.136719 171.695312 117.035156 172.097656 122.902344 C 172.5 128.804688 173.539062 134.636719 174.980469 140.367188 C 176.21875 145.164062 177.761719 149.789062 179.839844 154.347656 C 178.128906 154.078125 176.320312 153.746094 174.410156 153.273438 C 170.957031 150.089844 167.90625 146.132812 165.425781 141.976562 C 162.878906 137.621094 160.832031 132.925781 159.59375 128.03125 C 158.386719 123.105469 157.582031 118.007812 157.816406 112.914062 C 157.714844 110.332031 158.183594 107.816406 158.417969 105.269531 C 158.753906 102.722656 159.425781 100.242188 159.925781 97.691406 C 159.324219 100.175781 158.519531 102.65625 158.050781 105.203125 C 157.679688 107.75 157.109375 110.296875 157.078125 112.878906 C 156.609375 118.042969 157.109375 123.273438 158.117188 128.402344 C 159.121094 133.53125 161 138.492188 163.445312 143.152344 C 165.023438 146.132812 166.832031 148.984375 168.910156 151.664062 C 157.042969 147.441406 144.605469 138.15625 142.832031 118.074219 C 139.847656 86.09375 181.316406 58.167969 188.152344 53.8125 Z M 154.597656 41.742188 C 171.257812 52.167969 171.792969 60.214844 171.660156 62.058594 C 168.675781 64.503906 165.527344 67.320312 162.441406 70.40625 C 158.753906 74.027344 155.535156 77.714844 152.71875 81.367188 C 152.585938 80.09375 152.484375 78.753906 152.417969 77.480469 C 152.316406 74.929688 152.351562 72.351562 152.519531 69.769531 C 152.71875 67.1875 152.988281 64.605469 153.390625 62.058594 C 153.792969 59.476562 154.328125 56.929688 154.933594 54.414062 C 154.09375 56.894531 153.289062 59.375 152.617188 61.925781 C 151.949219 64.472656 151.414062 67.019531 150.941406 69.632812 C 150.507812 72.25 150.207031 74.863281 150.039062 77.511719 C 149.902344 79.960938 149.871094 82.339844 150.105469 84.921875 C 149.734375 85.492188 149.332031 86.027344 149 86.597656 C 147.960938 81.835938 145.109375 74.058594 137.332031 67.621094 C 136.394531 56.089844 150.941406 44.457031 154.597656 41.742188 Z M 111.386719 53.175781 C 113.765625 55.992188 118.828125 60.785156 127.878906 65.175781 C 144.707031 73.320312 146.316406 88.140625 146.484375 90.652344 C 141.152344 100.074219 138.808594 109.394531 139.578125 118.242188 C 139.945312 122.433594 140.75 126.15625 141.890625 129.507812 C 140.382812 127.898438 139.042969 126.15625 137.734375 124.34375 C 134.984375 120.488281 132.808594 116.230469 131.199219 111.738281 C 130.292969 109.527344 129.824219 107.179688 129.21875 104.867188 C 128.851562 102.519531 128.347656 100.140625 128.316406 97.761719 C 127.878906 92.964844 128.449219 88.140625 129.152344 83.378906 C 128.179688 88.105469 127.34375 92.933594 127.511719 97.792969 C 127.441406 100.242188 127.8125 102.65625 128.046875 105.070312 C 128.515625 107.449219 128.882812 109.894531 129.6875 112.207031 C 131.097656 116.902344 133.109375 121.429688 135.757812 125.617188 C 137.097656 127.695312 138.503906 129.707031 140.113281 131.617188 C 140.886719 132.589844 141.722656 133.496094 142.59375 134.402344 L 143.9375 135.707031 C 144.339844 136.078125 144.640625 136.34375 145.144531 136.746094 C 146.886719 139.699219 148.898438 142.246094 151.144531 144.457031 C 147.121094 142.480469 143.300781 139.964844 139.8125 137.148438 C 133.476562 131.988281 128.316406 125.417969 124.527344 118.109375 C 122.617188 114.453125 121.140625 110.566406 119.898438 106.644531 C 118.726562 102.6875 117.789062 98.632812 117.21875 94.507812 C 115.976562 86.296875 115.84375 77.914062 116.449219 69.601562 C 115.574219 77.882812 115.441406 86.296875 116.449219 94.609375 C 116.882812 98.765625 117.753906 102.890625 118.792969 106.945312 C 119.96875 110.96875 121.308594 114.957031 123.152344 118.78125 C 126.804688 126.390625 131.902344 133.363281 138.339844 138.925781 C 144.675781 144.390625 151.914062 148.714844 160.195312 151.097656 C 162.84375 152.570312 165.59375 153.710938 168.273438 154.648438 C 160.765625 156.023438 150.976562 154.449219 140.988281 150.15625 C 124.226562 142.917969 110.75 129.976562 105.820312 116.398438 C 97.675781 94.039062 108.03125 62.359375 111.386719 53.175781 Z M 74.84375 73.925781 C 78.835938 73.488281 93.585938 72.886719 100.222656 86.027344 C 99.617188 91.59375 99.417969 97.359375 99.886719 103.023438 C 98.746094 102.085938 97.605469 101.113281 96.535156 100.105469 C 94.558594 98.230469 92.679688 96.25 90.9375 94.140625 C 89.160156 92.0625 87.582031 89.816406 86.175781 87.46875 C 84.699219 85.15625 83.5625 82.640625 82.523438 80.058594 C 83.328125 82.707031 84.230469 85.355469 85.503906 87.835938 C 86.710938 90.351562 88.121094 92.765625 89.730469 95.078125 C 91.304688 97.390625 93.046875 99.605469 94.890625 101.714844 C 95.292969 102.152344 95.695312 102.585938 96.097656 103.023438 C 91.742188 100.742188 86.007812 98.96875 78.699219 99 C 77.125 96.351562 72.128906 86.496094 74.84375 73.925781 Z M 63.683594 104.734375 C 78.566406 99.9375 91.773438 101.882812 100.859375 110.164062 C 101.363281 112.679688 102.03125 115.125 102.871094 117.503906 C 107.933594 131.453125 121.375 144.691406 138.171875 152.371094 C 135.253906 151.902344 132.335938 151.261719 129.519531 150.457031 C 123.019531 148.648438 116.78125 145.898438 111.050781 142.347656 L 108.871094 141.039062 C 108.167969 140.570312 107.496094 140.03125 106.828125 139.53125 C 105.484375 138.492188 104.078125 137.550781 102.804688 136.445312 L 99.046875 132.992188 L 98.109375 132.121094 L 97.273438 131.148438 L 95.597656 129.238281 C 93.214844 126.792969 91.371094 123.910156 89.394531 121.125 C 88.355469 119.785156 87.652344 118.210938 86.777344 116.734375 L 84.296875 112.242188 L 86.578125 116.835938 C 87.382812 118.34375 88.019531 119.953125 89.023438 121.359375 C 90.902344 124.242188 92.644531 127.195312 94.957031 129.773438 L 96.601562 131.785156 L 97.40625 132.792969 L 98.3125 133.695312 L 102 137.351562 C 103.238281 138.558594 104.648438 139.5625 105.988281 140.671875 C 106.660156 141.207031 107.328125 141.777344 108 142.277344 L 110.144531 143.722656 C 115.878906 147.609375 122.179688 150.660156 128.785156 152.773438 L 133.777344 154.214844 C 135.488281 154.582031 137.164062 155.019531 138.875 155.320312 C 142.191406 155.921875 145.511719 156.359375 149 156.460938 C 149.636719 156.628906 150.273438 156.792969 150.910156 156.960938 C 144.976562 158.167969 135.992188 159.542969 125.699219 159.710938 C 118.359375 159.074219 109.675781 156.960938 99.148438 142.917969 C 90.734375 131.71875 80.945312 126.222656 69.246094 126.1875 C 56.339844 126.121094 48.058594 118.34375 47.960938 118.242188 L 47.890625 118.34375 C 44.875 113.550781 43.066406 109.527344 42.09375 107.113281 C 46.117188 107.550781 53.792969 107.917969 63.683594 104.734375 Z M 52.753906 125.046875 C 56.777344 127.160156 62.441406 129.171875 69.347656 129.207031 C 80.007812 129.238281 88.992188 134.335938 96.769531 144.691406 C 102.234375 152 107.296875 156.390625 112.289062 159.039062 C 101.863281 157.96875 91.003906 155.21875 81.179688 149.621094 C 68.007812 142.078125 58.886719 133.058594 52.753906 125.046875 Z M 72.363281 173.757812 C 75.648438 173.152344 80.84375 171.746094 85.773438 168.695312 C 97.003906 161.722656 105.148438 161.523438 107.628906 161.65625 C 113.261719 162.492188 118.828125 162.828125 124.089844 162.828125 C 132.570312 162.828125 140.28125 161.957031 146.316406 160.953125 C 143.566406 162.660156 140.652344 164.238281 137.734375 165.644531 C 133.042969 167.890625 128.179688 169.902344 123.183594 171.445312 C 118.191406 172.988281 113.09375 174.292969 107.898438 175.097656 C 102.738281 176.039062 97.472656 176.40625 92.175781 176.640625 C 97.441406 176.675781 102.738281 176.539062 108 175.871094 C 113.261719 175.332031 118.457031 174.226562 123.621094 172.917969 C 128.785156 171.613281 133.8125 169.835938 138.707031 167.757812 C 141.320312 166.652344 143.871094 165.445312 146.351562 164.101562 C 142.929688 167.757812 140.449219 172.652344 141.054688 178.988281 C 141.1875 180.460938 141.554688 181.902344 142.09375 183.277344 C 106.558594 198.597656 80.207031 180.328125 72.363281 173.757812 Z M 186.710938 202.019531 C 179.371094 201.984375 172.332031 200.742188 166.128906 198.664062 C 172.429688 198.566406 180.476562 196.519531 189.929688 190.050781 C 192.746094 192.128906 201.496094 197.859375 213.464844 198.664062 C 203.675781 201.617188 192.914062 202.085938 186.710938 202.019531 Z M 221.945312 195.179688 C 204.3125 197.792969 191.105469 187 190.96875 186.898438 L 190.03125 186.128906 L 189.058594 186.832031 C 168.542969 201.414062 155.402344 193.703125 152.855469 191.925781 C 147.824219 188.140625 144.605469 183.578125 144.136719 178.71875 C 142.796875 165.074219 159.023438 159.140625 161.535156 158.304688 C 161.871094 158.304688 162.207031 158.304688 162.542969 158.304688 C 163.816406 158.304688 165.089844 158.238281 166.296875 158.101562 C 166.09375 158.304688 165.894531 158.472656 165.660156 158.671875 C 163.480469 160.71875 161.535156 163.03125 159.960938 165.542969 C 158.351562 168.023438 157.109375 170.773438 156.339844 173.625 C 155.46875 176.441406 155.265625 179.390625 155.199219 182.304688 C 155.535156 179.421875 155.972656 176.539062 157.078125 173.890625 C 158.082031 171.210938 159.492188 168.695312 161.234375 166.449219 C 162.945312 164.203125 164.957031 162.191406 167.203125 160.449219 C 169.28125 158.839844 171.625 157.363281 173.90625 156.292969 C 174.578125 156.460938 175.214844 156.59375 175.851562 156.726562 C 174.410156 158.335938 173.269531 160.082031 172.195312 161.890625 C 170.65625 164.539062 169.449219 167.386719 168.507812 170.269531 C 167.605469 173.1875 167 176.136719 166.632812 179.121094 C 166.398438 180.597656 166.398438 182.105469 166.261719 183.613281 L 166.230469 188.105469 L 166.664062 183.648438 C 166.933594 182.171875 167.066406 180.695312 167.4375 179.253906 C 168.039062 176.371094 168.910156 173.523438 170.019531 170.808594 C 171.15625 168.09375 172.53125 165.511719 174.207031 163.164062 C 175.75 161.019531 177.59375 158.90625 179.539062 157.398438 C 180.746094 157.566406 181.886719 157.734375 182.957031 157.835938 C 181.953125 159.609375 181.148438 161.421875 180.410156 163.265625 C 179.371094 165.914062 178.632812 168.695312 178.164062 171.476562 C 177.660156 174.261719 177.558594 177.109375 177.796875 179.925781 C 177.929688 182.742188 178.734375 185.457031 179.570312 188.105469 C 178.96875 185.390625 178.464844 182.675781 178.566406 179.925781 C 178.597656 177.175781 178.933594 174.460938 179.671875 171.847656 C 180.375 169.230469 181.347656 166.683594 182.554688 164.238281 C 183.628906 162.089844 184.933594 159.945312 186.34375 158.101562 C 187.113281 158.136719 187.820312 158.167969 188.457031 158.167969 C 189.359375 167.152344 189.964844 176.238281 190.265625 185.324219 C 190.9375 176.304688 191.304688 167.253906 191.40625 158.167969 C 192.511719 158.136719 193.585938 158.070312 194.65625 158 C 196.332031 159.609375 197.875 161.6875 199.082031 163.835938 C 200.390625 166.148438 201.429688 168.660156 202 171.277344 C 202.570312 173.890625 202.902344 176.640625 202.703125 179.355469 C 202.703125 180.730469 202.402344 182.070312 202.234375 183.445312 C 202 184.785156 201.5625 186.128906 201.261719 187.46875 C 201.695312 186.160156 202.265625 184.886719 202.636719 183.546875 C 202.9375 182.207031 203.375 180.863281 203.507812 179.457031 C 203.976562 176.675781 203.910156 173.824219 203.574219 171.007812 C 203.207031 168.191406 202.367188 165.410156 201.195312 162.796875 C 200.390625 160.984375 199.417969 159.308594 198.277344 157.667969 C 199.617188 157.5 200.960938 157.296875 202.234375 157.0625 C 204.179688 158.707031 206.023438 160.816406 207.464844 163.03125 C 209.105469 165.476562 210.414062 168.160156 211.21875 171.007812 C 212.054688 173.859375 212.558594 176.839844 212.457031 179.859375 C 212.523438 181.367188 212.289062 182.875 212.15625 184.382812 C 211.957031 185.894531 211.554688 187.367188 211.25 188.84375 C 211.652344 187.367188 212.191406 185.925781 212.523438 184.453125 C 212.792969 182.941406 213.195312 181.433594 213.230469 179.890625 C 213.597656 176.808594 213.328125 173.691406 212.691406 170.640625 C 212.089844 167.554688 210.949219 164.605469 209.40625 161.824219 C 208.703125 160.582031 207.964844 159.375 207.128906 158.234375 C 208.769531 158.503906 210.515625 158.636719 212.324219 158.671875 C 214.203125 160.082031 215.976562 161.890625 217.488281 163.800781 C 219.09375 165.878906 220.402344 168.226562 221.273438 170.742188 C 222.179688 173.253906 222.648438 175.9375 222.546875 178.652344 C 222.582031 181.367188 221.878906 184.050781 221.105469 186.699219 C 222.144531 184.148438 223.085938 181.5 223.320312 178.71875 C 223.6875 175.9375 223.488281 173.085938 222.785156 170.339844 C 222.113281 167.589844 220.941406 164.941406 219.398438 162.492188 C 218.492188 161.085938 217.519531 159.746094 216.414062 158.503906 C 217.015625 158.4375 217.585938 158.371094 218.191406 158.304688 C 221.207031 159.945312 238.976562 170.40625 233.710938 183.144531 C 231.433594 188.507812 227.140625 192.398438 221.945312 195.179688 Z M 269.378906 161.019531 C 270.351562 160.882812 279.136719 160.046875 291.910156 167.992188 C 296.9375 171.109375 302.234375 172.484375 305.519531 173.085938 C 298.175781 179.890625 272.96875 199.234375 236.828125 183.648438 C 239.679688 175.9375 236.058594 169.265625 231.332031 164.304688 C 232.605469 164.972656 233.878906 165.613281 235.1875 166.214844 C 240.417969 168.695312 245.847656 170.773438 251.414062 172.316406 C 256.945312 173.890625 262.640625 175.066406 268.375 175.636719 C 274.074219 176.339844 279.875 176.238281 285.574219 175.96875 C 279.839844 176.003906 274.105469 175.835938 268.476562 174.863281 C 262.808594 174.058594 257.277344 172.652344 251.882812 170.839844 C 246.484375 169.0625 241.253906 166.785156 236.257812 164.136719 C 234.113281 162.996094 232.035156 161.789062 229.957031 160.515625 C 235.1875 161.757812 242.328125 162.929688 250.675781 162.964844 L 250.675781 162.996094 C 250.742188 162.996094 250.808594 162.964844 250.875 162.964844 C 250.875 162.964844 250.910156 162.964844 250.910156 162.964844 C 256.609375 162.964844 262.84375 162.425781 269.414062 160.984375 Z M 295.09375 147.074219 C 283.492188 154.382812 271.960938 157.867188 261.570312 159.175781 C 269.3125 155.351562 276.386719 149.488281 281.113281 142.648438 C 288.691406 131.71875 293.417969 127.832031 306.492188 126.289062 C 313.632812 125.449219 319.128906 123.203125 323.050781 120.957031 C 317.117188 129.238281 308.199219 138.792969 295.09375 147.074219 Z M 327.980469 113.347656 C 326.738281 114.65625 319.597656 121.59375 306.121094 123.203125 C 291.941406 124.878906 286.578125 129.304688 278.53125 140.871094 C 270.789062 152.035156 258.6875 158.035156 250.40625 159.84375 C 239.945312 159.8125 231.464844 157.867188 226.503906 156.390625 C 227.007812 156.226562 227.542969 156.089844 228.046875 155.921875 C 235.121094 155.921875 241.859375 154.617188 248.363281 152.402344 C 254.964844 150.15625 261.269531 146.972656 266.765625 142.714844 C 268.242188 141.777344 269.449219 140.535156 270.789062 139.429688 C 272.097656 138.289062 273.4375 137.183594 274.542969 135.84375 L 278.0625 132.019531 C 279.136719 130.679688 280.109375 129.238281 281.148438 127.863281 L 282.6875 125.785156 C 283.191406 125.082031 283.5625 124.3125 284.03125 123.574219 L 286.613281 119.113281 C 288.222656 116.0625 289.460938 112.847656 290.902344 109.761719 C 289.359375 112.8125 287.984375 115.964844 286.277344 118.945312 L 283.527344 123.273438 C 283.058594 123.976562 282.65625 124.746094 282.121094 125.417969 L 280.511719 127.429688 C 279.4375 128.769531 278.398438 130.109375 277.324219 131.417969 L 273.738281 135.039062 C 272.597656 136.3125 271.222656 137.316406 269.917969 138.390625 C 268.574219 139.429688 267.335938 140.601562 265.859375 141.476562 C 260.328125 145.398438 254.09375 148.246094 247.65625 150.191406 C 244.070312 151.261719 240.316406 152.035156 236.59375 152.46875 C 253.925781 144.222656 267.636719 130.109375 272.5 115.5625 C 273.304688 113.179688 273.871094 110.699219 274.308594 108.1875 C 283.160156 99.636719 296.300781 97.324219 311.316406 101.714844 C 321.242188 104.597656 328.882812 104.0625 332.808594 103.390625 C 331.96875 105.605469 330.460938 109.089844 327.980469 113.347656 Z M 327.980469 113.347656 " fill-opacity="1" fill-rule="nonzero"/></g></svg>